<?xml version="1.0" encoding="UTF-8"?>
<svg xmlns="http://www.w3.org/2000/svg" xmlns:xlink="http://www.w3.org/1999/xlink" version="1.1" id="Layer_1" x="0px" y="0px" viewBox="0 0 288 289.2" style="enable-background:new 0 0 288 289.2;" xml:space="preserve">
<style type="text/css">
	.st0{fill:#FFFFFF;}
</style>
<title>BKN</title>
<path class="st0" d="M271.5,109.7c0.3,0.9,0.5,1.8,0.8,2.8c2.7,10.7,4,21.6,4,32.6c-1.3,4.4-5.3,15.6-14.3,22.5  c-0.4,0.4-0.9,0.7-1.4,1c0-10.2-1.1-20.3-3.4-30.2C267.2,128.9,271,119,271.5,109.7z M254.9,129.2c2.1-2.2,3.9-4.6,5.3-7.3  c8.1-15.8,2.5-34-1.6-43.5c-26.1-45.4-77.1-72-130.1-65.8C182.4,14,235.1,62.5,254.9,129.2z M264,175c-1.2,0.9-2.4,1.8-3.7,2.7  c-0.7,8.7-2.3,17.4-4.8,25.8c1.5-0.5,3-0.8,4.6-0.9c0.9-0.1,1.9,0.2,2.6,0.8c7.3-14.8,11.7-30.8,13.1-47.3  C273.8,162.7,270.2,170.2,264,175z M255.3,209c-0.5,0.4-1,0.7-1.5,1c-0.2,0.1-0.4,0.3-0.6,0.4c-3.5,9.4-8.2,18.3-13.9,26.5  c8.3-8.6,15.3-18.3,21-28.8c-0.2-0.1-0.4-0.3-0.6-0.5C259.4,207.5,258.3,207.1,255.3,209L255.3,209z M72.9,256.4  c-28.6-18.3-49-46.8-57.2-79.7c-1.6-6.5-2.8-13.1-3.4-19.8c3.7,7.1,15,24.1,43,36c13.3,5.7,27.1,9.9,41.4,12.5v-11  c-11.5-2.7-22.9-5.9-34.1-9.8c-40-13.3-50.2-31.5-50.3-31.6L12,153c-1.8-27,4.7-53.9,18.6-77.1c3.1-0.6,6.2-0.9,9.3-0.9  c10.7,0,29,2.8,55.2,15.9c0.4,0.2,0.9,0.5,1.3,0.7v-9c-5.3-2.6-10.2-5-14.6-6.9c-13.7-5.8-25.4-8.8-34.8-8.8c-4-0.1-8,0.6-11.8,1.9  c17.4-25.4,43.3-43.9,73-52.2c2.8-0.2,5.6-0.3,8.3-0.3c77.4,0,122.1,79.1,130.6,115.2c0.2,0.8,0.4,1.7,0.6,2.5l0.1,0.5  c-10.1,5.2-24.6,5.7-42.2,1.3c-5.3-1.4-10.6-3.2-15.7-5.3c-0.2,0.5-0.4,1.1-0.6,1.6c-0.5,1.1-1,2.2-1.6,3.3c1.9,1.9,3.6,4,5,6.3  c0.5,0.7,0.9,1.4,1.3,2.2c1,0.3,2,0.7,2.9,0.9c15.4,3.7,24.9,5.2,32.8,5.2s14.3-1.7,20-5.2c1.7,9.5,2.5,19.2,2.6,28.8  c-12.3,6-31.6,12.9-52.8,17.8v8.7c23.4-5.5,40.5-11.1,52.5-17.3c-0.5,8.4-1.8,16.6-4,24.7c-0.3,0.2-0.6,0.4-0.9,0.5  c-2.4,1.4-4.7,2.7-7.2,4l-4.5,2.5c-5.9,3.4-11.9,6.9-18,10.2c-12.1,6.6-22.7,12.2-32.6,17.5c-5.3,4.5-11.5,7.8-18.2,9.6  c-0.4,0.2-0.8,0.4-1.2,0.6c-13.1,6.9-27.3,11.2-41.9,12.9c-12.1,1.5-23.9,0.2-38.2-4.1c-0.8-0.2-1.6-0.5-2.4-0.7  c-3.2-0.8-6.4-1.9-9.3-3.5L72.9,256.4z M107.9,54.1l0.3,183.8c0,1.5,0.8,2.9,2.1,3.7c0.7,0.4,1.5,0.7,2.4,0.7l38.2-0.1  c4.1,0,16.5,0,26.9-9c9.2-8.4,10.1-18.4,10.4-29.5l0-31.5c0-9.8,0-21.9-10.2-30.4c-2.3-1.9-4.9-3.5-7.6-4.6c4.6-3.1,8.1-7.7,9.7-13  c1.6-4.9,1.6-11,1.5-13.4l-0.1-28c-0.2-7.8-1.1-16.6-7.3-23.7c-5.5-6.1-13.8-9.3-24.3-9.3l-37.6,0.1c-1.1,0-2.2,0.5-3,1.3  C108.3,52,107.9,53.1,107.9,54.1L107.9,54.1z M245.3,216c-0.8,0.6-1.6,1.2-2.5,1.8c-1.4,1-2.9,2.1-4.5,3.2c-5,3.5-9.9,6.5-15,9.6  c-2.4,1.5-4.9,3-7.5,4.6c-17.7,11-38.8,23.3-61.5,30.4c-6.1,1.9-12.3,3.4-18.5,4.5c-5.1,0.8-10.3,1.2-15.5,1.2h-1.1  c-7.2,0-14.4-0.8-21.5-2.3c40.7,15.3,86.4,9.6,122-15.4C230.8,244.2,239.7,231.4,245.3,216L245.3,216z M138.2,148.8l-7.2,0.1  c-0.6-0.1-1.2,0.4-1.3,1c0,0.1,0,0.2,0,0.3c0,0.5,0.2,59.6,0.2,70.3c0,1.2,0.5,2,1.8,2h15.5c8.4-0.3,11.6-1.4,14.3-3.4  c4.5-3.5,5.2-9.1,5.2-21l-0.1-26c0.1-3.8-0.3-7.5-1.3-11.1c-1.1-3.3-3.4-6.1-6.3-7.9C153.8,149.7,145.8,149.1,138.2,148.8z   M130.9,129h6.7c6.7-0.2,8.2-0.5,11.3-1.4c11.1-3.4,11.2-12.9,11.4-18.6c0-0.6,0-1.1,0.1-1.7l-0.1-21.9c-0.1-3.2-0.5-6.4-1.2-9.6  c-0.6-1.6-1.7-3-3.2-3.9c-3.6-2.2-9.1-2.4-14-2.5h-11.1c-1,0.1-1.3,0.6-1.3,1.5c0,0,0.1,56.1,0.1,56.6  C129.4,128.5,129.7,129.1,130.9,129L130.9,129z"></path>
<path d="M283.6,109.7C264.3,32.2,186-15,108.9,4.3S-15,102,4.4,179.5s97.6,124.7,174.8,105.3S303,187.1,283.6,109.7z M276.3,145.1  c-1.3,4.4-5.3,15.6-14.3,22.5c-0.4,0.4-0.9,0.7-1.4,1c0-10.2-1.1-20.3-3.4-30.2c9.9-9.5,13.7-19.4,14.2-28.7  c0.3,0.9,0.5,1.8,0.8,2.8C275,123.2,276.4,134.1,276.3,145.1z M258.6,78.4c4.1,9.4,9.7,27.6,1.6,43.5c-1.4,2.7-3.1,5.2-5.3,7.3  C235.1,62.5,182.4,14,128.5,12.6C181.5,6.4,232.5,33,258.6,78.4z M15.7,176.7c-1.6-6.5-2.8-13.1-3.4-19.8c3.7,7.1,15,24.1,43,36  c13.3,5.7,27.1,9.9,41.4,12.5v-11c-11.5-2.7-22.9-5.9-34.1-9.8c-40-13.3-50.2-31.5-50.3-31.6L12,153c-1.8-27,4.7-53.9,18.6-77.1  c3.1-0.6,6.2-0.9,9.3-0.9c10.7,0,29,2.8,55.2,15.9c0.4,0.2,0.9,0.5,1.3,0.7v-9c-5.3-2.6-10.2-5-14.6-6.9  c-13.7-5.8-25.4-8.8-34.8-8.8c-4-0.1-8,0.6-11.8,1.9c17.4-25.4,43.3-43.9,73-52.2c2.8-0.2,5.6-0.3,8.3-0.3  c77.4,0,122.1,79.1,130.6,115.2c0.2,0.8,0.4,1.7,0.6,2.5l0.1,0.5c-10.1,5.2-24.6,5.7-42.2,1.3c-5.3-1.4-10.6-3.2-15.7-5.3  c-0.2,0.5-0.4,1.1-0.6,1.6c-0.5,1.1-1,2.2-1.6,3.3c1.9,1.9,3.6,4,5,6.3c0.5,0.7,0.9,1.4,1.3,2.2c1,0.3,2,0.7,2.9,0.9  c15.4,3.7,24.9,5.2,32.8,5.2s14.3-1.7,20-5.2c1.7,9.5,2.5,19.2,2.6,28.8c-12.3,6-31.6,12.9-52.8,17.8v8.7  c23.4-5.5,40.5-11.1,52.5-17.3c-0.5,8.4-1.8,16.6-4,24.7c-0.3,0.2-0.6,0.4-0.9,0.5c-2.4,1.4-4.7,2.7-7.2,4l-4.5,2.5  c-5.9,3.4-11.9,6.9-18,10.2c-12.1,6.6-22.7,12.2-32.6,17.5c-5.3,4.5-11.5,7.8-18.2,9.6c-0.4,0.2-0.8,0.4-1.2,0.6  c-13.1,6.9-27.3,11.2-41.9,12.9c-12.1,1.5-23.9,0.2-38.2-4.1c-0.8-0.2-1.6-0.5-2.4-0.7c-3.2-0.8-6.4-1.9-9.3-3.5l-0.9-0.5  C44.3,238.2,23.8,209.6,15.7,176.7z M176.3,273.5c-26,6.5-53.4,5-78.5-4.5c7.1,1.5,14.2,2.2,21.4,2.3h1.1c5.2,0,10.4-0.4,15.5-1.2  c6.3-1,12.5-2.5,18.5-4.5c22.8-7.1,43.9-19.3,61.5-30.4c2.6-1.6,5-3.1,7.5-4.6c5.1-3.1,10-6.1,15-9.6c1.6-1.1,3-2.1,4.5-3.2  c0.8-0.6,1.6-1.2,2.5-1.8c-5.7,15.3-14.5,28.2-25.5,37.6C206.7,262.9,191.9,269.6,176.3,273.5L176.3,273.5z M239.3,237  c5.7-8.2,10.4-17.1,13.9-26.5c0.2-0.1,0.4-0.3,0.6-0.4c0.5-0.3,1-0.7,1.5-1c3-2,4.1-1.5,4.4-1.3c0.1,0.2,0.3,0.4,0.6,0.5  C254.6,218.7,247.6,228.4,239.3,237L239.3,237z M262.8,203.5c-0.7-0.6-1.6-0.9-2.6-0.8c-1.6,0.1-3.1,0.4-4.6,0.9  c2.5-8.4,4.1-17,4.8-25.8c1.4-0.9,2.6-1.8,3.7-2.7c6.2-4.8,9.7-12.4,11.8-18.9C274.5,172.6,270,188.7,262.8,203.5L262.8,203.5z   M110.3,241.7c0.7,0.4,1.5,0.7,2.4,0.7l38.2-0.1c4.1,0,16.5,0,26.9-9c9.2-8.4,10.1-18.4,10.4-29.5l0-31.5c0-9.8,0-21.9-10.2-30.4  c-2.3-1.9-4.9-3.5-7.6-4.6c4.6-3.1,8-7.7,9.7-13.1c1.6-4.9,1.6-11,1.5-13.4l-0.1-28c-0.2-7.8-1.1-16.6-7.3-23.7  c-5.5-6.1-13.8-9.3-24.3-9.3l-37.6,0.1c-1.1,0-2.2,0.5-3,1.3c-0.8,0.8-1.2,1.9-1.2,3l0.3,183.8C108.2,239.5,109,240.9,110.3,241.7z   M165.3,160.9c1,3.6,1.5,7.4,1.3,11.1l0.1,26c0,11.9-0.8,17.5-5.2,21c-2.7,1.9-6,3.1-14.3,3.4h-15.5c-1.3,0-1.8-0.8-1.8-2  c0-10.7-0.2-69.8-0.2-70.3c-0.1-0.6,0.3-1.2,1-1.3c0.1,0,0.2,0,0.3,0l7.2-0.1c7.6,0.4,15.6,0.9,20.8,4.3  C162,154.9,164.2,157.6,165.3,160.9L165.3,160.9z M130.7,69.4h11.1c4.9,0.2,10.5,0.3,14,2.5c1.5,0.9,2.6,2.2,3.2,3.9  c0.8,3.1,1.2,6.3,1.2,9.6l0.1,21.9c-0.1,0.6-0.1,1.1-0.1,1.7c-0.2,5.7-0.3,15.3-11.4,18.6c-3.1,0.9-4.6,1.2-11.3,1.4h-6.7  c-1.1,0-1.4-0.5-1.4-1.4c0-0.5-0.1-56.6-0.1-56.6C129.3,70.1,129.7,69.5,130.7,69.4z"></path>
</svg>
