<svg xmlns="http://www.w3.org/2000/svg" xmlns:xlink="http://www.w3.org/1999/xlink" width="155.5" height="155.104" viewBox="0 0 155.5 155.104"><defs><style>.a{fill:none;}.b{clip-path:url(#a);}.c{fill:#fff;}.d{fill:#bbc4ca;}.e{fill:#0064b1;}</style><clipPath id="a"><rect class="a" width="155.5" height="155.104"/></clipPath></defs><g class="b" transform="translate(0 0)"><path class="c" d="M-295.608,87.041C-296.851,85.192-301,78.162-301,66.826a53.08,53.08,0,0,1,2.12-14.513.549.549,0,0,0,.023-.108l.667-2.616.165.163c.1-.309.211-.631.318-.958.538-1.618,1.1-3.311,1.228-3.711.088-.347.58-2.285.967-3.635.117-.41.215-.744.318-1.033l.025-.191c.126-1.006.285-1.97.473-2.9.066-.5.153-.985.222-1.394l.029-.179.074-.165c.044-.112.085-.2.115-.269a32,32,0,0,1,7.6-14.7l.025-.026.025-.026a19.354,19.354,0,0,1,2.809-2.218c.59-.775,2.515-3.27,4.28-5.247.6-.666,1.176-1.272,1.718-1.763a16.994,16.994,0,0,1,2.312-3.743,20.26,20.26,0,0,1,8.955-6.358,78.034,78.034,0,0,1,10.562-6.012,43.523,43.523,0,0,1,7.515-6.021A37.064,37.064,0,0,1-228.694-17c.307,0,.619.006.928.015l2.95.086-3.653,4.909q2.915-.22,5.892-.222a78.472,78.472,0,0,1,29.565,5.739l.044.018.04.018a17.655,17.655,0,0,1,1.634.885,7.377,7.377,0,0,1,1.6,1.253,11.93,11.93,0,0,1,3.448.957l.046.018.038.021a76.961,76.961,0,0,1,25.125,21l.061.076.048.085a6.042,6.042,0,0,1,.594,1.826c.113.072.271.172.449.29a7.151,7.151,0,0,1,1.161.914l.089.092.075.105A73.551,73.551,0,0,1-145.5,62.948a73.424,73.424,0,0,1-11.8,39.973l-.029.042-.027.037a2.232,2.232,0,0,1-.283.309,3.864,3.864,0,0,1-.373.316,9.059,9.059,0,0,1-.9.6c-.029.143-.071.335-.126.547a5.462,5.462,0,0,1-.636,1.617l-.021.033-.029.042a77.562,77.562,0,0,1-62.85,31.64c-33.91,0-62.721-21.349-73.03-51.063" transform="translate(301 17)"/><path d="M-159.415,22.364A9.184,9.184,0,0,0-160.9,21.3a.743.743,0,0,1-.458-.5,5.659,5.659,0,0,0-.484-1.759A75.5,75.5,0,0,0-186.464-1.536a10.2,10.2,0,0,0-3.277-.858.594.594,0,0,1-.514-.267,9.305,9.305,0,0,0-2.928-1.982,76.967,76.967,0,0,0-28.989-5.625,77.892,77.892,0,0,0-9.194.547l3.958-5.323c-15.843-.473-27.212,11.9-27.212,11.9l.006.017A76.129,76.129,0,0,0-265.475,3.05l.009-.02a17.747,17.747,0,0,0-10.646,9.626c-2.092,1.75-6.239,7.256-6.239,7.256a16.825,16.825,0,0,0-2.8,2.172c-1.9,1.977-5.386,6.44-7.242,14.126-.048.127-.109.248-.165.377-.071.428-.155.912-.222,1.391-.18.913-.339,1.859-.465,2.846l.08-.108c-.029.207-.052.329-.052.329-.195.134-1.383,4.869-1.383,4.869-.192.6-2.35,7.088-2.35,7.088l-.015-.013a.153.153,0,0,0,0,.041c-5.679,19.842,1.864,31.868,3.149,33.719,10.033,29.189,38.317,50.221,71.644,50.221a76.028,76.028,0,0,0,61.606-31.009,6.285,6.285,0,0,0,.586-1.858.754.754,0,0,1,.322-.6,5.208,5.208,0,0,0,1.465-1.017,71.833,71.833,0,0,0,11.56-39.139,72,72,0,0,0-12.782-40.989" transform="translate(300.594 16.595)"/><g transform="translate(8.168 4.694)"><path class="c" d="M-247.324,8.938c.2-.2.377-.39.531-.564.256-.264.355-.328.385-.309a.512.512,0,0,0,.055-.052,29.867,29.867,0,0,1,.92-6.806c6.867-9.6,18.2-12.138,18.2-12.138,1.408-.4.5.218.5.218-7.135,7.993-6.393,14.6-6.393,14.6l6.811,24.844s-5.52-1.942-9.772-10.671c-1.966,17.415,14.459,31.537,14.459,31.537.715.611-.411-.052-.411-.052-4.113-2.054-8.848-6.383-10.144-7.6.347,1.341,8.342,41.53,8.365,41.649.038.187.146.575.23.833l2.77-6.882,2.289,20.293c-10.412,9.689-21.5,5.852-22.185,5.6.266.435.476.753.476.753s9.01,17.685,45.688,15.81c0,0,.879-.006.745.109.015.028-.033.071-.2.128a12,12,0,0,1-1.77.425C-240.06,132.492-263.009,94.755-264,93.07a33.753,33.753,0,0,1-3.628-6.464c-.036-.089-.088-.389.117-.156,0,0,4.7,4.9,18,6.111a1.085,1.085,0,0,0,.155-.024c-10.282-11.461-14.65-19.763-15.3-21.034,0,0,0,0-.012,0s-1.234-1.86-2.7-7.124c0,0,.037-.264.163,0,.5,1.046,3.9,6.063,8.043,7.185h.008c-3.51-5.668-5.7-14.635-5.975-15.946,4.789,6.7,13.265,7.185,13.265,7.185a.387.387,0,0,0-.044-.066.2.2,0,0,1,.028.048c-13.948-13.913-10.943-29.061-5.281-40a64.139,64.139,0,0,1,9.834-13.847" transform="translate(285.875 11.069)"/><path class="d" d="M-191.638,119.137l-9.152,9.63a.1.1,0,0,0,.021-.019l11.295-8.668-5.846-20.165,2.553-24.25-4.461,23.158Z" transform="translate(271.923 -7.028)"/><path class="d" d="M-187.8,53.148c-.8,4.142-2.1,8.382-4.36,10.274.168-.083.368-.192.6-.329a12.1,12.1,0,0,0,2.488-1.978,13.541,13.541,0,0,0,3.622-9.776A25.984,25.984,0,0,0-186.7,43.76a74.753,74.753,0,0,1-1.1,9.388" transform="translate(270.123 -0.371)"/><path class="d" d="M-187.33,15.31l.155-.045Zm.051-.374c3.188-4.818,8.428-5.234,10.65-5.257a18.8,18.8,0,0,0-5.293-.767,17.373,17.373,0,0,0-6.907,1.385c-.151.068-.27.126-.358.169a19.971,19.971,0,0,1,1.908,4.47" transform="translate(269.502 6.899)"/><path class="d" d="M-205.316,52.688m7.955-27.3a.165.165,0,0,1,.142.154q.012.669.013,1.345c0,10.371-2.755,21.73-3.809,25.676a60.033,60.033,0,0,0,5.045-24.089,55.356,55.356,0,0,0-.734-9.141c-.192-1.139-.385-2.013-.523-2.593-1.008,7.808-3.977,11.35-3.992,11.367a.159.159,0,0,1-.135.057.161.161,0,0,1-.128-.084,48.36,48.36,0,0,0-15.383-16.7c-.569-.379-1.021-.656-1.322-.836,9.294,20.2,12.014,35.776,12.713,40.912.021-.591.034-1.194.034-1.8,0-9.224-2.361-20.347-3.543-25.326-.393-1.661-.654-2.636-.654-2.638a.164.164,0,0,1,.066-.176.169.169,0,0,1,.189.009c4.176,3.248,7.109,12.463,7.628,14.172a25.822,25.822,0,0,0,2.633-5.6c.9-2.4,1.587-4.591,1.59-4.595a.159.159,0,0,1,.151-.112h.021m-3.98,2.615.138-.075Z" transform="translate(275.553 6.558)"/><path class="d" d="M-290.678,67.385c0,9.6,1.656,19.655,9.92,32.477l.013.018c7.8,16.441,22.193,25.292,28.9,28.687,2.232,1.129,3.6,1.654,3.617,1.66a68.99,68.99,0,0,0,29.669,6.87,70.935,70.935,0,0,0,39.026-12.162c1.988-1.35,3.043-2.246,3.043-2.247l.1.121-.1-.122c.4-.326.693-.584.91-.777-.119.064-.238.137-.355.207-.427.253-.818.507-.82.51-14.622,8.581-28.1,11.2-39.093,11.2-17.232,0-28.38-6.424-28.39-6.43C-280.769,108.24-281.3,75.035-281.3,75.012a.156.156,0,0,1,.121-.157.159.159,0,0,1,.18.081c4.714,9.131,10.428,12.247,12.972,13.237.369.142.668.239.889.3C-277.762,75.09-280.8,63.824-280.8,55.331c0-11.251,5.327-17.619,5.34-17.635a.157.157,0,0,1,.19-.042.158.158,0,0,1,.09.175,56.082,56.082,0,0,0-1.055,10.495c0,7.411,1.741,12.024,2.6,13.86.025.054.051.106.076.154a65.852,65.852,0,0,1-.467-7.812,61.807,61.807,0,0,1,17.77-43.448c-2.318.972-5.134,3.462-7.428,5.812-2.539,2.6-4.456,5.009-4.461,5.013a.159.159,0,0,1-.176.052.158.158,0,0,1-.1-.153,14.947,14.947,0,0,1,1.77-5.7,22.438,22.438,0,0,0-4.569,6.758,40.534,40.534,0,0,0-1.917,4.788l-.034.058A50.2,50.2,0,0,0-282.84,44.4c-.349,1.033-.5,1.621-.5,1.621a5.237,5.237,0,0,1-.28.93c-.034.038-.034.11-.184.132a.179.179,0,0,1-.168-.12.3.3,0,0,1-.025-.1,1.719,1.719,0,0,1-.013-.225c0-.305.037-.726.037-.726.112-4.728,2.076-10.043,2.867-12.008-5.57,5.991-6.935,14.113-6.935,20.6a49.839,49.839,0,0,0,.612,7.7c.3,1.932.606,3.089.606,3.093l0,.04a70.145,70.145,0,0,0,1.511,12.3c.749,3.76,1.486,6.556,1.486,6.551a5.982,5.982,0,0,1,.347,1.247.433.433,0,0,1-.021.109.188.188,0,0,1-.167.11.251.251,0,0,1-.18-.1,1.159,1.159,0,0,1-.1-.138c-.071-.1-.15-.242-.226-.377-.147-.26-.281-.519-.281-.522-3.889-5.959-5.787-15.787-6.222-18.267,0,.374-.006.749-.006,1.125" transform="translate(290.678 6.448)"/><path class="e" d="M-186.336,17.876l-.079-.073.037-.1c1.787-4.773,10.179-9.016,11.809-9.812a21.769,21.769,0,0,0-10.758-2.85,21.96,21.96,0,0,0-5.727.76,14.6,14.6,0,0,0-2.189.753h0l-.115.053-.075-.1a42.483,42.483,0,0,0-4.846-4.941c-1.456-1.286-2.573-2.153-2.67-2.225-.213-.139-.347-.219-.364-.42a.269.269,0,0,1,.147-.229.721.721,0,0,1,.217-.072,2.847,2.847,0,0,1,.5-.036c.2,0,.373.012.415.013,33.469.009,51.262,23.922,51.266,23.929a1.214,1.214,0,0,1,.347.778c-.029.722-.846,1.065-1.584,1.3a9.46,9.46,0,0,1-1.5.311,65.32,65.32,0,0,1-9,.645c-17.4,0-25.815-7.663-25.836-7.681" transform="translate(272.032 9.055)"/><path class="e" d="M-196.832,129.693a.165.165,0,0,1-.109-.123.163.163,0,0,1,.056-.155l11.23-9.035-5.7-21.1,0-.059,1.573-14.149a.149.149,0,0,1,.071-.117.153.153,0,0,1,.132-.02c2.554.785,3.751,4.259,4.371,7.5a39.2,39.2,0,0,1,.6,5.633c2.982-6.452,3.955-11.634,3.955-15.653,0-5.693-1.952-9.051-2.915-10.37a5.619,5.619,0,0,0-.529-.645.163.163,0,0,1,0-.225.16.16,0,0,1,.224,0c13.375,12.669,16.061,30.4,16.061,42.628a74.445,74.445,0,0,1-1.226,14.02l0,.018a2.7,2.7,0,0,1-1.812,1.64,65.583,65.583,0,0,1-14.186,1.6,42.764,42.764,0,0,1-11.788-1.39" transform="translate(271.12 -6.082)"/><path class="e" d="M-161.354,124.253a1,1,0,0,1-.336-.835,2.671,2.671,0,0,1,.08-.621s.436-1.678.871-4.563a80.615,80.615,0,0,0,.865-11.777c0-12.737-3.055-30.5-17.245-44.316a2.268,2.268,0,0,1-.385-.318.356.356,0,0,1-.1-.228.218.218,0,0,1,.119-.192.38.38,0,0,1,.186-.038,2.655,2.655,0,0,1,.641.116,15.826,15.826,0,0,1,6.43,4.122c-.023-.185-.054-.419-.091-.695A25.238,25.238,0,0,0-171,61.851a22.194,22.194,0,0,0-4.424-8.414,7.831,7.831,0,0,1-.518-.593.533.533,0,0,1-.121-.263.186.186,0,0,1,.05-.127.187.187,0,0,1,.129-.052.571.571,0,0,1,.282.115c.106.068.25.169.445.315.85.411,36.492,17.657,37.742,52.485,0,0,.018.2.018.515a4.726,4.726,0,0,1-1.261,3.514c-.346.43-8.79,10.935-21.219,14.969a2.5,2.5,0,0,1-.791.146,1.08,1.08,0,0,1-.69-.209" transform="translate(267.086 -2.175)"/><path class="e" d="M-136.263,95.91a3.367,3.367,0,0,1-.161-1.06c-.81-33.51-37.549-54.607-46.732-59.344-1.31-.677-2.05-1.02-2.05-1.02l-.647-.3.709-.008h.088a11.615,11.615,0,0,1,8.642,3.914h0a10.957,10.957,0,0,0-.347-2.512c-.18-.707-.354-1.185-.354-1.185l-.12-.328.324.124c3.846,1.465,8.8,1.951,13.661,1.95a100,100,0,0,0,12.738-.907c3.434-.454,5.683-.907,5.687-.907l.008,0h.009c.18-.016.351-.023.51-.023a2.713,2.713,0,0,1,2.661,1.285c4.591,5.121,10.282,16.993,11.232,31.25.117,1.79.172,3.528.172,5.2-.008,12.508-3,21.625-4.76,23.787a1.121,1.121,0,0,1-.764.51.571.571,0,0,1-.506-.43" transform="translate(268.806 1.651)"/><path d="M-224.611-6.5a.34.34,0,0,0,.063-.089l-.01,0c-.408.116-7.727,2.275-9.894,13.437,0,0-.017.2.1.016.659-1.086,2.944-4.548,5.049-3.521,0,0,.013-.085.029-.229.113-.945.8-4.824,4.662-9.619" transform="translate(278.947 10.133)"/><path d="M-234.07,113.91c-1.582-3.178-11.74-25.373-11.74-25.373-3.164,1.01-7.083-1.566-7.083-1.566v.012c5,13.276,16.766,24.887,18.642,26.992a.106.106,0,0,1,.03.029c.318.349.318.221.318.221-.046-.065-.093-.175-.168-.315" transform="translate(282.794 -9.387)"/><path d="M-242.454,29.614c-9.173,20.962,11.466,29.6,11.738,29.711l.009,0L-231.8,54.5l-.624-2.765a14.643,14.643,0,0,1-1.469-.567c-.159-.068-.313-.146-.468-.216-.191-.093-.385-.184-.565-.279-9.018-4.8-8.143-16.276-7.587-20a.5.5,0,0,1,0-.078c.021-.108.038-.214.055-.313.055-.35.1-.587.13-.714.009-.057.017-.094.017-.094v-.015c.025-.279-.1.04-.146.158" transform="translate(281.106 2.636)"/><path class="d" d="M-225.067,97.306l-1.485-26.34,8.857,29.369s-2.907-6.94-7.371-3.029" transform="translate(277.298 -6.048)"/><path class="d" d="M-224.786,8.448l1.963,15.75s.958,4.3-4.94-2.15c4.251,8.729,9.771,10.671,9.771,10.671L-224.75,8.066a.652.652,0,0,0-.036.382" transform="translate(277.551 7.076)"/><path class="d" d="M-236.371,40.641a9.025,9.025,0,0,1-.774-3.54,7.989,7.989,0,0,1,2.831-5.994l.084-.063a60.386,60.386,0,0,1,.088-6.378C-236.406,28-241.206,35.9-235.461,42.08c-.092-.129-.176-.245-.253-.358a9.733,9.733,0,0,1-.657-1.081" transform="translate(279.724 3.613)"/><path d="M-230.1,45.529A34.118,34.118,0,0,1-233.95,32.84a.663.663,0,0,1-.008-.113l-.085.063a7.988,7.988,0,0,0-2.83,5.993,9.025,9.025,0,0,0,.774,3.54,9.733,9.733,0,0,0,.657,1.081c.078.112.161.229.253.358s.23.264.364.408a7.279,7.279,0,0,0,5.281,2.26s-.222-.315-.552-.9" transform="translate(279.451 1.931)"/><path class="d" d="M-212.582,127.852h0v.013c0-.011,0-.022,0-.034l0-.008Z" transform="translate(274.383 -17.911)"/><path class="d" d="M-219.2,111.349c.916.01,1.613.847,2.184,2.008a20.614,20.614,0,0,1,1.39,4.256c.444,1.919.728,3.837.883,5.008,0,.529-.009.916-.023,1.141v.019c.194-1.27,2.057-13.58-4.2-15.313,0,0-4.352-1.113-4.071,7.957.027-.207.05-.388.066-.556,1.429-3.21,2.624-4.494,3.771-4.519" transform="translate(276.567 -13.864)"/><path d="M-212.579,127.829v0Z" transform="translate(274.383 -17.913)"/><path d="M-214.737,123.391c-.025-.384-.439-3.089-.883-5.008a20.622,20.622,0,0,0-1.39-4.255c-.571-1.162-1.268-2-2.184-2.008-1.147.025-2.342,1.308-3.771,4.519a1.12,1.12,0,0,0-.066.556l2.155,4.748s1.238-12.713,6.105,2.57c0,.029,0,.053.009.063v-.03l0,.009v-.022a5.909,5.909,0,0,0,.023-1.141" transform="translate(276.564 -14.635)"/></g></g></svg>