<?xml version="1.0" encoding="UTF-8"?>
<!-- Generator: Adobe Illustrator 25.4.1, SVG Export Plug-In . SVG Version: 6.00 Build 0)  -->
<svg xmlns="http://www.w3.org/2000/svg" xmlns:xlink="http://www.w3.org/1999/xlink" version="1.1" id="Layer_1" x="0px" y="0px" viewBox="0 0 348.1 320" style="enable-background:new 0 0 348.1 320;" xml:space="preserve">
<style type="text/css">
	.st0{fill:#D4D4D4;}
	.st1{fill:#091F40;}
	.st2{fill:#FDB525;}
</style>
<g id="Layer_1_00000122680882917069785410000014558106010612586413_">
	<g>
		<path class="st0" d="M319.2,44.2C295.6,15.8,260.8-0.3,223.8,0H72.2L1.8,320h129.6l18.7-77.5c17.2,0,63.3,0,63.3,0    c43,0.4,78.6-14.2,102.5-42.3C359.3,152.7,351.8,83.5,319.2,44.2"></path>
		<path class="st1" d="M143.3,234.3l-18.7,77.5H12.3L78.9,8.6h144.8c34.4-0.7,67,14.6,88.7,41.2c32.2,38.9,35.2,103.3-3,145.2    c-23.6,27.7-58,39.7-96.6,39.7L143.3,234.3z"></path>
		<path class="st2" d="M64,75.6h63.6c7.5,0,15,6,11.6,15.3c-2.2,6-3.7,12.4-4.5,18.7c-0.7,4.9,4.9,7.9,7.9,7.9h129.5    c2.6,0,3.7-0.7,3.7-1.9c0-3-0.4-5.6-0.7-8.6c-0.4-3-0.7-3.4-3.4-3.4c-16.1,0-22.8-7.1-39.7-18c-16.8-10.9-41.5-17.2-62.9-17.2    h-104L64,75.6z"></path>
		<path class="st2" d="M142.6,159.5c-2.2-5.2-4.1-10.5-5.6-15.7c-1.9-7.9-9-12.7-16.8-12.4H52.1l1.9-7.5h220.8    c2.2,0,1.9,0.7,1.5,3.4c0,2.6-0.7,7.1-1.1,9.7c-0.4,2.6-2.6,1.9-4.5,2.2c-6.7,0-13.8,1.9-19.5,5.2c-9,6.7-28.8,19.1-39.7,22.5    C199.1,170.7,155.3,184.2,142.6,159.5"></path>
		<path class="st2" d="M39.7,187.2H155c4.5-0.4,9.4,1.1,12.7,4.1c10.5,8.2,22.8,14.2,35.9,17.6c6,1.9,16.5-0.4,25.4-5.6    c23.2-13.1,37.8-37.8,42.7-53.9c1.1-4.1-1.1-3.7-4.5-3.7c-9.7,0.7-19.8,9.4-33.3,18c-13.5,8.6-40.8,16.8-66.6,16.5H41.2    L39.7,187.2z"></path>
		<path class="st2" d="M208.8,33c3.7-0.4,7.1-0.4,10.9,0.7c21.7,8.6,42.7,31.4,51.3,55.8c1.5,4.5,2.2,7.5,0,7.9    c-10.1,1.1-14.6-3.7-26.6-12c-11.6-7.9-24.3-14.2-37.8-18.3c-14.6-4.9-41.5-5.2-44.9-5.6c-3.4,0-3-1.5-1.5-3    C173.3,45.3,190.1,36.3,208.8,33"></path>
		<path class="st2" d="M313.6,116c0,1.1-1.1,1.9-2.2,1.9h-25.1c-3.4,0-3.4-1.5-3.4-3.4s-0.7-5.6-0.7-7.9c0-2.2-0.7-4.5,1.9-5.6    c7.1-3.4,13.1-9,16.8-15.7c1.1-1.9,2.6-5.2,4.1-2.6C311,92.5,312.9,104.1,313.6,116"></path>
		<path class="st2" d="M304.6,161.3c-0.4,0.7-1.9,1.5-2.6,0c-3.7-8.6-10.1-15.7-18.3-19.8c-1.5-0.7-2.2-2.2-1.9-4.1    s1.1-7.5,1.1-10.1c0-1.9,0.7-3.4,2.2-3.4h26.3c0.7,0,2.2,0.7,2.2,1.5C313.6,138.1,310.3,150.1,304.6,161.3"></path>
		<path class="st2" d="M236.1,210.7c-1.9,0.4-6-0.4,0.4-4.1c19.1-11.2,36.3-37.1,40.8-52c1.9-5.6,1.9-6,4.1-5.2    c4.5,2.2,8.2,5.6,11.2,9.7c3.4,4.9,5.2,14.2,3,17.2C281.1,194.6,259.7,207.4,236.1,210.7"></path>
		<path class="st2" d="M284.8,92.5c-4.5,2.2-5.2,1.9-6.4-1.5c-8.2-29.2-32.9-50.9-42.7-57.3c-1.9-1.1-1.5-1.9,0-1.9    c24,3.4,47.5,16.1,59.1,34.1C302,76.8,289.3,90.2,284.8,92.5"></path>
	</g>
</g>
</svg>
