<?xml version="1.0" encoding="UTF-8"?>
<!-- Generator: Adobe Illustrator 26.2.1, SVG Export Plug-In . SVG Version: 6.00 Build 0)  -->
<svg xmlns="http://www.w3.org/2000/svg" xmlns:xlink="http://www.w3.org/1999/xlink" version="1.1" id="Layer_1" x="0px" y="0px" viewBox="0 0 648 648" style="enable-background:new 0 0 648 648;" xml:space="preserve">
<style type="text/css">
	.st0{fill:#FFFFFF;}
	.st1{fill:#2D2A26;}
	.st2{fill:#CE0E2D;}
	.st3{fill:#1A428A;}
</style>
<g>
	<g>
		<circle class="st0" cx="323.39" cy="324.08" r="288"></circle>
		<path class="st1" d="M323.39,59.86c-145.69,0-264.22,118.53-264.22,264.22S177.7,588.3,323.39,588.3    c145.69,0,264.22-118.53,264.22-264.22S469.08,59.86,323.39,59.86z M514.38,177.27c30.22,39.22,47.4,85.9,49.74,135.22h-99.56    C466.91,263.22,484.11,216.53,514.38,177.27z M132.4,177.27c30.27,39.27,47.47,85.95,49.82,135.22H82.66    C85,263.17,102.18,216.49,132.4,177.27z M132.4,470.88c-30.22-39.22-47.4-85.9-49.74-135.22h99.56    C179.87,384.94,162.67,431.62,132.4,470.88z M334.97,564.81v-69.04h-23.16v69.04c-62.72-2.98-120.88-29.88-164.07-75.88    c35.3-44.07,55.21-97.01,57.64-153.27v-23.16c-2.44-56.26-22.35-109.2-57.64-153.27c43.19-46,101.35-72.9,164.07-75.88v68.42    h23.16V83.34c62.71,2.98,120.88,29.88,164.07,75.88c-35.3,44.07-55.21,97.01-57.65,153.27v23.16    c2.44,56.26,22.35,109.2,57.65,153.27C455.85,534.93,397.69,561.83,334.97,564.81z M514.38,470.88    c-30.27-39.26-47.47-85.95-49.82-135.22h99.56C561.78,384.98,544.61,431.66,514.38,470.88z"></path>
		<g>
			<polygon class="st2" points="264.53,213.41 264.53,433.85 382.3,433.85 382.3,403.54 296.05,403.54 296.05,213.41    "></polygon>
			<path class="st3" d="M422.34,287.26v-90.83c0-13.61-5.48-19.16-18.91-19.16H243.12c-13.27,0-18.68,5.55-18.68,19.16v255.29     c0,13.61,5.41,19.16,18.68,19.16h160.31c13.43,0,18.91-5.55,18.91-19.16v-90.93h-31.76V443H255.97V205.15h134.62v82.11H422.34z"></path>
			<path class="st2" d="M382.25,395.01l0.05-181.6h-76.52l-0.74,181.6h30.64l0.49-56.61h15.58l-0.22,56.61H382.25z M351.54,308.2     h-15.35v-64.49h15.35V308.2z"></path>
		</g>
	</g>
</g>
</svg>
