<?xml version="1.0" encoding="utf-8"?>
<!-- Generator: Adobe Illustrator 27.3.1, SVG Export Plug-In . SVG Version: 6.00 Build 0)  -->
<svg version="1.1" id="Layer_1" xmlns="http://www.w3.org/2000/svg" xmlns:xlink="http://www.w3.org/1999/xlink" x="0px" y="0px"
	 viewBox="0 0 200 200" style="enable-background:new 0 0 200 200;" xml:space="preserve">
<style type="text/css">
	.st0{fill:#061922;}
	.st1{fill:#98002E;}
	.st2{fill:#FAA21B;}
	.st3{fill:#FFFFFF;}
</style>
<g>
	<path class="st0" d="M165.6,50.5c-5.1-5.7-16.4-10.3-31-13c0-1.7,1.1-2.4,2.9-3.6c1.1-0.7,2.1-1.5,3.1-2.4
		c4.7-4.5-0.8-11.3-1.1-11.6l-3-3.7l0.7,4.7c0.5,3.2-0.7,4.4-4.2,6.9c-0.4,0.3-0.8,0.6-1.2,1c0.3-2.5,0.1-5.1-0.5-7.6
		c-0.3-1.6-1.1-3.1-2.2-4.3l-0.4,4.4c0,0-0.3,3.4-4.9,7.5c0.4-0.4,0.8-0.9,1.1-1.4c2.2-3.3,1.7-6.9,0.8-11.2l-0.2-0.9
		c-0.8-4.4,0.4-7.2,1.2-7.7c0.7-0.9,2.2-2.4,2.2-2.4c-1-0.2-2-0.2-3,0c-2.8,0.4-7.6,2.1-7.5,6c0.1,1.6,0.5,3.2,1.1,4.8
		c0.5,1.5,1,3,0.6,3.7c-0.4,0.7-1.4,1.1-3,1.4c-6.7,1.2-11.8,4.3-14.4,8.8c-0.8,1.5-1.4,3.1-1.7,4.7c-16.6,0-32.3,2.1-44.5,5.9
		c-13.7,4.2-21.2,10-21.8,16.6c-0.3,3.5,1.3,8.6,10,13.4l0,0l2.5,1.2l0,0l1.3,0.6l0,0c4.5,2,9.2,3.5,14.1,4.7
		c-1.8,1-3.6,2.3-5.2,3.7c-15.7,12.8-18.1,35.9-5.3,51.6c12.8,15.7,35.9,18.1,51.6,5.3c6.6-5.3,11.1-12.8,12.8-21.1
		c2.1-7.1,2.9-14.6,2.5-22c-0.4-5.6,1.9-11.1,6.3-14.7c10.1-1.1,20.1-3.6,29.5-7.4l0,0l1.2-0.6l0,0l2.6-1.3l0,0
		c6.1-3.4,9.6-7.5,10-11.8C169,55.6,167.8,52.6,165.6,50.5z M153.6,57.6c1,1.1,1,1.9,1,2.1c-0.1,1.3-1.8,2.9-4.6,4.4l0,0
		c-5.8,3.1-15.9,5.4-27.8,6.7c0.5-0.4,1.1-0.7,1.7-0.9h0.2c3.4-1.4,7.3-3,7.5-8.7c0-1.6,0.1-3.1,0.6-4.7c0.8-1.6,2.1-2.9,3.7-3.8
		l-2.4-0.5h-0.4c0.8-0.6,1.4-1.4,1.8-2.2C144.7,52.1,151.2,54.9,153.6,57.6L153.6,57.6z M48.8,59c0.4-4.7,17.3-10.9,44.6-11.8
		c-3.4,2.5-5.7,6.3-6.3,10.5l-0.3,2c-0.1,1.3-0.4,2.5-0.9,3.8c-1,2.8-4,5-7.2,6.8c-11-1.4-20.2-3.7-25.5-6.7l0,0
		C50.3,62.1,48.7,60.4,48.8,59L48.8,59z"/>
	<polygon class="st0" points="67.8,170.8 72.5,151.7 64.8,151.7 60.1,170.8 	"/>
	<path class="st0" d="M84.8,156.4l0.5,7.8h-4l4.1,6.7h7.1l-1.1-19.1H79.6L70,170.8h7.5L84.8,156.4L84.8,156.4z"/>
	<polygon class="st0" points="66.8,188.4 65.2,194.9 72.5,194.9 77.2,175.8 69.9,175.8 68.1,183.2 62.7,183.2 64.5,175.8 
		57.2,175.8 52.5,194.9 59.8,194.9 61.3,188.4 	"/>
	<polygon class="st0" points="84.2,190.6 84.7,188 93.7,188 94.8,183.8 85.8,183.8 86.4,181 95.4,181 96.8,175.8 80.4,175.8 
		75.7,194.9 92,194.9 93.1,190.6 	"/>
	<polygon class="st0" points="130.8,170.8 135.5,151.7 127.8,151.7 123.1,170.8 	"/>
	<path class="st0" d="M143.7,166.6c1,1.4,2.1,4.2-2.6,6.4c-5.6,2.5,0,8.9-7.6,8.9h-3.1l-3.2,13.1h-7.8l3.2-13.1h-5.2l1.7-6h13.4
		c8,0,2.4-5.5,6.4-6.3C141.6,169,143.4,168.5,143.7,166.6z"/>
	<polygon class="st0" points="46.7,161.6 45.5,151.7 35.9,151.7 31.2,170.8 38.3,170.8 40.9,160.8 40.9,160.8 42.3,170.8 
		46.5,170.8 52.3,160.8 52.3,160.8 50.1,170.8 56.7,170.8 61.4,151.7 52.2,151.7 46.8,161.6 	"/>
	<polygon class="st0" points="109.8,161.6 108.6,151.7 99,151.7 94.3,170.8 101.4,170.8 104,160.8 104.1,160.8 105.5,170.8 
		109.6,170.8 115.4,160.8 115.4,160.8 113.2,170.8 119.8,170.8 124.5,151.7 115.3,151.7 109.9,161.6 	"/>
	<path class="st0" d="M108.7,180.5l0.5,7.8h-4l4.1,6.7h7.1l-1.1-19.1h-11.6c0,0-9.5,19.1-9.5,19.1h7.5L108.7,180.5L108.7,180.5z"/>
	<path class="st1" d="M45.4,111.6c1.1,5.8,4.4,11,9.2,14.5c1.7,1.2,3.5,2.1,5.4,2.8c-1.2-2-2.6-4.1-4-6.1c-2.8-3.8-5.1-7.9-7.1-12.2
		c-1.8-4.4-2.3-9.1-1.5-13.8l0,0c-1.4,3.9-2.2,8-2.2,12.2C45.4,109.9,45.4,110.7,45.4,111.6L45.4,111.6z"/>
	<path class="st1" d="M51.4,109.6c1.9,4.1,4.1,8,6.8,11.6c2,2.8,3.7,5.7,5.4,8.7c1.6,0.4,3.3,0.6,5,0.7c-1.9-2.7-3.4-5.6-4.6-8.6
		c-5.1-12.7-4.4-28.3,2-37.4c3.1-4.5,7.3-8.1,12.2-10.6c4.3-2.4,7-3.1,9.8-4.7c2.7-1.6,4.6-4.8,2.6-11.4c-0.5-1.5-0.7-3.1-0.6-4.7
		c-0.7,1.5-1.2,3-1.5,4.6l0,0c-0.2,2.1-0.6,4.1-1.2,6.1C84.6,70.9,71.7,74.7,70,75.2c-4.3,1.3-8.4,3.5-11.7,6.5
		C50.4,88.7,47.6,99.8,51.4,109.6z"/>
	<path class="st1" d="M104.8,47.1c0.1,0.4,0.2,0.8,0.3,1.3c0.3,2.4-0.4,4.4-3.3,4.8s-4.1-2.2-4.3-4.3c0-0.6,0-1.2,0.1-1.8H96
		c-1.3,0.7-2.5,1.6-3.5,2.7c-0.6,1.3-1.3,3.1-0.2,7.4c2,7.5,1.1,12-4.9,14.6c-7.7,3.3-12.6,5.2-19.1,13.5c-3.2,4-4.9,10.5-5.2,17.1
		c-0.2,6.4,0.9,12.8,3.3,18.7c1.3,3.5,3.1,6.7,5.3,9.7c2.1-0.1,4.2-0.4,6.2-0.8c-2.3-2.7-3.6-6.1-3.8-9.6
		C73.3,108.2,79.9,103.1,90,95l4.5-3.8c18-15.3,12.7-30.8,14.7-44C107.7,47.1,106.2,47.1,104.8,47.1z"/>
	<path class="st1" d="M112,47.3c-0.5,2.7-0.8,5.5-1,8.3c-0.7,11.5-0.4,24.6-15,37.6l-4.4,3.5c-9.8,7.9-15.4,12.7-15,23.4
		c0.1,3.4,1.6,6.7,4.1,9c2.8-0.8,5.5-2,8.1-3.4c12.2-6.6,20.9-18.3,23.8-31.8c1.5-7.1,2.1-14.4,1.9-21.6c0-2.9,0.4-8.6,0.4-8.6
		c0.4-5.4,2.2-10.6,5.1-15.1c0.1-0.2,0.3-0.4,0.4-0.6C117.6,47.7,114.9,47.5,112,47.3z"/>
	<path class="st1" d="M116.3,84.4L116.3,84.4c-0.4,2.1-0.5,4.4-0.7,6.7c-0.1,0.9-0.2,1.7-0.4,2.6l-0.1,0.7
		c-3,14.3-12.1,26.6-25,33.5c-2.2,1.3-4.6,2.3-7,3.2c3.4,2.3,7.5,3.3,11.6,2.9c12-1.8,17.8-9.6,20.7-18c2.1-7,2.9-14.3,2.4-21.6
		c-0.5-7.1,3.1-13.9,9.4-17.4C119.6,76.7,117.1,80,116.3,84.4z"/>
	<path class="st1" d="M108.3,131.2c-3.6,2.9-8,4.8-12.7,5.4c-5.5,0.8-11-0.8-15.3-4.3l-0.2-0.2c-2.1,0.6-4.2,0.9-6.4,1.1
		c4.9,5.2,11.2,8.2,19.8,8.7h0.1c5.8-2.3,10.8-6,14.7-10.8L108.3,131.2z"/>
	<path class="st1" d="M63.6,139.9c0-2.7-0.6-5.5-1.9-7.9c-3-0.9-5.9-2.1-8.6-3.7c-1.6-1.1-3-2.3-4.2-3.7l0,0
		C52.1,131,57.2,136.4,63.6,139.9z"/>
	<path class="st1" d="M88.1,143.6c-4.5-0.9-8.8-2.8-12.5-5.5c-1.8-1.4-3.5-3-5-4.8c-1.9,0-3.9-0.2-5.8-0.6c1.1,2.7,1.5,5.6,1.3,8.4
		l0,0c4.6,2.1,9.6,3.2,14.7,3.2C83.3,144.4,85.7,144.1,88.1,143.6L88.1,143.6z"/>
	<path class="st1" d="M129.2,56.7c-0.2,1.3-1.3,2.2-2.6,2c-0.7-0.1-1.3-0.5-1.7-1.1c-1.2-1.7-1-4,0.5-5.4c1.7-1.2,3.5-2.2,5.5-2.8
		l0,0c-2.4-0.4-5-0.8-7.6-1.1l-0.1,0.1l-0.7,0.8c-3,4.4-4.8,9.5-5.2,14.8l-0.1,1.1c-0.2,2.4-0.3,4.8-0.2,7.1v1.2c0,1,0,1.9-0.1,2.9
		l0,0c0-0.4,0-0.5,0-0.3c0.9-3.4,3.3-6.1,6.5-7.5c3.3-1.4,6.7-2.6,6.9-7.6c0-1.7,0.2-3.5,0.7-5.1c0.4-1.1,1.3-2,2.4-2.4
		C131.3,53.4,129.5,54.8,129.2,56.7z"/>
	<path class="st2" d="M133.3,37.2c0.2-3.3,3.3-3.9,6.4-6.8c3.9-3.7-1.1-9.8-1.1-9.8c0.6,4.1-1.3,5.7-4.8,8.1c-1.1,0.7-1.9,1.9-2,3.2
		c-0.1,1.6-0.3,3.3-0.6,4.9L133.3,37.2z"/>
	<path class="st2" d="M122.6,31.5c-0.9,0.7-1.8,1.4-2.6,2.1c-0.8,0.7-1.1,1.1-1.7,1.7c3.3,0.3,6.7,0.7,9.9,1.1c2-3.7,3-7.9,1.8-15.1
		C130,21.3,129.7,26.2,122.6,31.5z"/>
	<path class="st2" d="M103.6,34.5c3.9,0,7.7,0.2,11.4,0.4l0.4-0.4c2.5-2.7,6.4-5,8.4-8s1.2-6.7,0.5-11.1c-1.3-7.7,1.9-9.1,1.9-9.1
		s-6.5,0.9-6.4,4.6c0.2,5,5.3,9.8-2.5,11.2c-8.6,1.6-13.9,6.2-15.1,12.3H103.6z"/>
	<path class="st3" d="M103.6,36.5c-35.9-0.4-65.8,8.9-66.8,20.7c-0.4,4.7,3.8,9.1,11.3,12.7c5.6,2.5,11.4,4.4,17.4,5.7
		c1.4-0.6,2.8-1.2,4.3-1.7c2-0.6,3.9-1.3,5.8-2.1c-10-1.5-18.2-3.7-23.2-6.4c-3.7-2-5.7-4.2-5.5-6.7c0.7-7.9,25.8-14.1,56.1-13.8
		c30.3,0.3,54.3,7.1,53.5,15c-0.2,2.1-2.2,4.2-5.6,6c-6.3,3.3-17.5,5.9-31.1,7.1c-0.5,0.7-0.9,1.4-1.2,2.1
		c6.2-2.3,13.3,1.1,13.3,1.1c0.3,0.1,0.6,0.2,0.8,0.4c7.8-1.2,15.4-3.5,22.5-6.7c6.9-3.3,11-7.2,11.4-11.5
		C167.8,46.7,139.5,36.9,103.6,36.5z"/>
</g>
</svg>
