<?xml version="1.0" encoding="UTF-8"?>
<svg xmlns="http://www.w3.org/2000/svg" id="Layer_1" data-name="Layer 1" viewBox="0 0 300 300">
  <defs>
    <style>.cls-1{fill:#a0a1a2;}.cls-2{fill:#0d2240;}.cls-3{fill:#276092;}.cls-4{fill:#77bc1f;}.cls-5{fill:#fff;}</style>
  </defs>
  <path class="cls-1" d="M298.2,109.8h0l-1.5-4.5A150,150,0,0,0,155,4.5h0a150.4,150.4,0,0,0-49.2,8.3C27.7,40-13.8,125.6,13.3,203.7a150,150,0,0,0,190.9,92.5c76.6-26.6,118-109.5,94-186.4" transform="translate(-5 -4.5)"></path>
  <path class="cls-2" d="M155,299.3A144.9,144.9,0,0,1,18.3,202C-7.9,126.7,32.2,44,107.6,17.9a144.6,144.6,0,0,1,184.1,89.3l.7,2h0c24.8,74.8-15.2,156.3-89.9,182.2a147.9,147.9,0,0,1-47.5,7.9" transform="translate(-5 -4.5)"></path>
  <path class="cls-3" d="M170,89.6l-2.7-.2a88.8,88.8,0,0,1-23.8-4.5,44.6,44.6,0,0,0-5,6.7c2.6,2.7,7.5,7.8,10,10.6,4.2,2.5,8.5,5.3,12.7,8.3,6.7-7.5,12.7-13.7,18.5-19.8l-8.9-1Z" transform="translate(-5 -4.5)"></path>
  <path class="cls-3" d="M107.2,114.5C96,130.2,88.1,150.7,87.4,175.2c11.9-13.1,21.7-25.3,28.4-31.7a53.4,53.4,0,0,1,13.6-9.6c-4.5-10.3-10.3-18.6-18.3-22.6a31.7,31.7,0,0,0-3.9,3.2" transform="translate(-5 -4.5)"></path>
  <path class="cls-3" d="M138.9,76.3c6.6-2.7,13.8-5.5,20.8-7.7a126.8,126.8,0,0,1,22.6-5.9l-.5-.2a100.6,100.6,0,0,0-13-2.8A94.9,94.9,0,0,0,133.9,61a15.6,15.6,0,0,0-.1,9.9,12,12,0,0,0,5.1,5.4" transform="translate(-5 -4.5)"></path>
  <path class="cls-3" d="M125.1,103.3c-2.6,1.2-5.5,2.7-8.3,4.3,7.8,5.1,13.6,13.8,18,23.9a39.1,39.1,0,0,1,10.5-2.2c4.2-5.3,8-10,11.6-14.2-4.2-2.9-8.4-5.7-12.6-8.1s-15.4-3.3-19.2-3.7" transform="translate(-5 -4.5)"></path>
  <path class="cls-3" d="M148.8,80.2a82.7,82.7,0,0,0,18.9,3.1l2.9.2h.7c3,.3,7.3.7,12.2,1.6,3.7-4.6,8.1-7.4,11.2-8a10.9,10.9,0,0,1,6.6,6.3,20.1,20.1,0,0,1,10.3,10c11.4,4.9,22.7,12.2,31.5,23.1a94.6,94.6,0,0,0-47.6-48.9h0c-.3,0-20.4-.5-45.4,11.6a5.7,5.7,0,0,0-1.3.8" transform="translate(-5 -4.5)"></path>
  <path class="cls-3" d="M250.6,146.6c-2.4-11.4-10.5-32.3-36.3-45.6,2.9,13-.4,27.9-.4,27.9s7.1,4.1,8.9,11.9a4.5,4.5,0,0,1,1.7,1.6c2,2.4,4.5,8,.5,19,0,0-2.4-5.1-7.5.4l-1.3,1.9c9.7,13.3,17.1,27.3,20.9,40.9a99.2,99.2,0,0,0,10.3-23.2,103.6,103.6,0,0,0,3.2-34.8" transform="translate(-5 -4.5)"></path>
  <path class="cls-3" d="M81,181.9a122.2,122.2,0,0,1,5.5-39.7,111.9,111.9,0,0,1,12.8-27.1c.7-1.5,2-3.7,3.4-6.3-18.5-2-35.2,17.7-41.7,26.6a94.9,94.9,0,0,0,7,59.5c4.6-4.2,8.9-8.6,13-13" transform="translate(-5 -4.5)"></path>
  <path class="cls-3" d="M202.6,205.7c-.2,9.2,4.3,16.2,7.7,27.2a96.6,96.6,0,0,0,21.9-21.4c-2.8-13.7-10-28.2-19.9-42.2-6.3,10.1-9.4,19.6-9.7,36.4" transform="translate(-5 -4.5)"></path>
  <path class="cls-3" d="M121.2,83.9c3.1-1.4,6.9-3.1,11.1-4.8a14.4,14.4,0,0,1-4.1-6,19.7,19.7,0,0,1-.9-10.3,96.9,96.9,0,0,0-36.9,21h1.5c9-.6,21.9-.2,29.3.1" transform="translate(-5 -4.5)"></path>
  <path class="cls-3" d="M105.9,103.2l3.8-6.6c-5.1-3.4-8.3-5.8-17.1-6.5a76.8,76.8,0,0,0-8.8.2,95.3,95.3,0,0,0-18.7,30.8c9.9-10.4,24.6-21.2,40.8-17.9" transform="translate(-5 -4.5)"></path>
  <path class="cls-4" d="M136.3,82.6l-6.6,9.6a52.2,52.2,0,0,1,9.1,8.2c-7.2-1.5-15.1-2.8-15.1-2.8l-12.6,6.8,5.9-9.8a77.8,77.8,0,0,0-8.5-6.3c5,.2,14.5.9,14.5.9Z" transform="translate(-5 -4.5)"></path>
  <path class="cls-4" d="M141.6,140.1a35.4,35.4,0,0,0-2,9.3s-10.9,1.6-16.2,5.2c.1-.1,11-11,18.2-14.5" transform="translate(-5 -4.5)"></path>
  <path class="cls-5" d="M215.2,139.5a7.6,7.6,0,0,1,2.8-.3,8.1,8.1,0,0,0-1.2-2.2,10.2,10.2,0,0,0-2.3-2.1,8.7,8.7,0,0,1,.7,4.6" transform="translate(-5 -4.5)"></path>
  <path class="cls-5" d="M205.4,144.6l3.8-2.4-1-2.1a10.8,10.8,0,0,0-3.4-3.2,18,18,0,0,1,.6,7.7" transform="translate(-5 -4.5)"></path>
  <path class="cls-1" d="M88.2,218.3c-9.3,3.8-31.2-1.4-31.2-1.4,22.2-1.3,43.9-17.1,43.9-17.1h-.1a57.6,57.6,0,0,1-15.5,15.7,32.1,32.1,0,0,0,2.9,2.7" transform="translate(-5 -4.5)"></path>
  <path class="cls-4" d="M198.9,85.9s-5.5-4.3-11.6,2.3c6.6-12.1,10.4-5.1,11.6-2.3" transform="translate(-5 -4.5)"></path>
  <path class="cls-1" d="M220.5,144.4l-.7-.5c-3.4-1.9-9.7,3.5-13.7,5.8s-10,7-12.8.5,3.7-16.8,6.1-23.2c5-14.3,5.2-22.6,4.2-27.1,4.7,5.3,6.2,15.4,6.2,15.4s1.8-19-7.5-23.9a22,22,0,0,1-.2,4.9h0c-4.3.7-13.9-.3-17-2-11.7,12.6-24.5,30.1-34.1,46.1-4.2,8.5-8.3,18.5-9.3,26.6a36.5,36.5,0,0,1-1.7-8.6c-5.3,2.1-23.4,10.9-27.3,38.2,0,0,11.5-11.8,24.2-16.5,0,0-8,21.1,7.4,58.4,0,0,6.2-22.9,19.2-28.7,7.9,39.1,31,39.8,37.7,66.4,0,0,7.1-13.8-1.4-37.3a12.2,12.2,0,0,1,5.4,3.7s-.4-6.9-6.8-21.6c-4.2-7.9-5.5-18.6-5.5-18.6-3.7,3.4-4.8,14.9-4.8,14.9-11.5-31.1,21.1-62,27-66.5,2.9-2.2,4.7-2.2,5.8-1.8,1-2.1,1-3.6-.4-4.6" transform="translate(-5 -4.5)"></path>
  <path class="cls-1" d="M241,89.3a107.7,107.7,0,0,0-86.2-42.8c-53.6,0-99.5,40.1-106.9,93.3a107.1,107.1,0,0,0,10.6,63.6l3.7-3.2a102.9,102.9,0,0,1-9.6-59.7c7-50.9,51-89.2,102.2-89.2a114.6,114.6,0,0,1,14.3,1,103.2,103.2,0,0,1,43,188.3,40.1,40.1,0,0,1,.8,5,108.4,108.4,0,0,0,49-76.2A106.4,106.4,0,0,0,241,89.3" transform="translate(-5 -4.5)"></path>
  <path class="cls-5" d="M86.7,39.1a9.4,9.4,0,1,0,9.4,9.4,9.4,9.4,0,0,0-9.4-9.4m0,14.6a5.1,5.1,0,1,1,5.1-5.1,5.1,5.1,0,0,1-5.1,5.1" transform="translate(-5 -4.5)"></path>
  <path class="cls-5" d="M65.6,62.6l-2.2,1.2c-.8.5-1.3.5-1.8.1s-.5-1.2.3-2h0a4.4,4.4,0,0,1,2.8-1.4h.4l-.3-4.2h-.4a8.1,8.1,0,0,0-5.8,3,7.6,7.6,0,0,0-2,4,4.8,4.8,0,0,0,1.8,4.3c2,1.9,4.4,2,7.2.4l2-1.1c1-.6,1.7-.8,2.2-.3s.5,1.4-.5,2.5h0a4.6,4.6,0,0,1-3.7,1.5h-.4l-.5,4.6h.4c1.5.1,4.5-.3,7.4-3.4h.1a8.2,8.2,0,0,0,2.3-4.8,5.3,5.3,0,0,0-2-4.3c-1.9-1.7-4.2-1.7-7.3,0" transform="translate(-5 -4.5)"></path>
  <rect class="cls-5" x="19.4" y="155.7" width="18.4" height="4.1" transform="translate(-8.7 -3.8) rotate(-1.4)"></rect>
  <polygon class="cls-5" points="49.6 89.6 56.6 79.1 53.1 76.9 48.5 83.8 45.9 82.1 50 76.1 46.5 73.9 42.5 79.9 40 78.2 44.6 71.2 41.3 69 34.4 79.3 49.6 89.6"></polygon>
  <polygon class="cls-5" points="109.8 40 104.5 26.7 109.2 24.8 107.6 21.1 94.4 26.5 95.9 30.2 100.6 28.2 106 41.6 109.8 40"></polygon>
  <polygon class="cls-5" points="34.4 100.1 21.4 106 21.2 106.6 38.4 113.6 39.9 109.9 31 106.2 44 100.3 44.3 99.6 27.1 92.6 25.5 96.4 34.4 100.1"></polygon>
  <polygon class="cls-5" points="26 127.6 14.7 136.2 14.6 137 32.9 139.8 33.6 135.8 24 134.3 35.3 125.5 35.4 124.9 17.1 122 16.5 126.1 26 127.6"></polygon>
  <rect class="cls-5" x="182.3" y="31.9" width="18.4" height="4.1" transform="matrix(0.28, -0.96, 0.96, 0.28, 99.55, 203.45)"></rect>
  <polygon class="cls-5" points="282.6 178 283.6 174 265.7 169.8 263 181.7 267 182.6 268.9 174.8 282.6 178"></polygon>
  <path class="cls-5" d="M281.2,145.8a9.4,9.4,0,1,0,9.4,9.4,9.4,9.4,0,0,0-9.4-9.4m0,14.6a5.1,5.1,0,1,1,5.1-5.1,5.1,5.1,0,0,1-5.1,5.1" transform="translate(-5 -4.5)"></path>
  <polygon class="cls-5" points="239 74.2 246.8 84 250 81.4 244.8 74.8 247.2 73 251.7 78.7 254.9 76 250.4 70.5 252.8 68.6 257.9 75.1 261.1 72.6 253.4 62.8 239 74.2"></polygon>
  <polygon class="cls-5" points="251.7 208.3 245.1 218.8 248.5 220.9 253 214 255.6 215.5 251.7 221.7 255.2 223.8 259.1 217.8 261.6 219.4 257.1 226.4 260.6 228.6 267.3 218.1 251.7 208.3"></polygon>
  <polygon class="cls-5" points="168.1 34.6 170 20.4 175 21.1 175.6 17.1 161.4 15.2 160.8 19.2 165.9 19.8 164 34 168.1 34.6"></polygon>
  <polygon class="cls-5" points="267.4 197.5 277.3 197 279 192.8 258.7 193.6 258.5 194.2 272.6 208.9 274.3 204.7 267.4 197.5"></polygon>
  <polygon class="cls-5" points="208.8 38.8 205.6 26.5 205.6 26.4 205 26.1 196.4 42.5 200.1 44.5 204 36.8 205.9 43.9 206.3 44.1 213.2 41.7 209.2 49.2 212.8 51.1 221.4 34.7 221 34.4 208.8 38.8"></polygon>
  <polygon class="cls-5" points="26.7 177.1 19.2 187.4 19.1 187.5 19.2 188.1 37.4 184.2 36.5 180.2 28.1 182 32.3 176.1 32.2 175.6 26 171.9 34.4 170.2 33.6 166.2 15.4 170 15.6 170.5 26.7 177.1"></polygon>
  <polygon class="cls-5" points="274.3 125.9 282 119.5 281.8 118.8 271.9 116.5 279.8 111.3 278.8 107.1 262.4 118 262.6 118.5 273.6 121.1 264.9 128.4 265.1 129.1 284.7 131.3 283.7 127 274.3 125.9"></polygon>
  <path class="cls-5" d="M267.5,103.4a5.2,5.2,0,0,0,6.4.7c3.4-1.7,4.5-5.1,2.6-8.9L273.4,89l-16.5,8.1,1.9,3.7,7.6-3.7-5.2,8.7,2.1,4.4c.2,0,3.9-6.4,4.2-6.8m.8-4.2-1.1-2.3,4.6-2.2,1.1,2.3c.8,1.7.5,2.9-1,3.6s-2.8.3-3.6-1.4" transform="translate(-5 -4.5)"></path>
  <path class="cls-5" d="M242.3,62.8A4.8,4.8,0,0,0,245,61a5.6,5.6,0,0,0,1.3-4.6,6.2,6.2,0,0,0-2.1-3.5l-2.3-2-3.1-2.7-2.7,3.1-1.9,2.1-.2.2-2.5,2.9-.2.2L229.2,59l-2.7,3.1,3.1,2.7,2.7,2.3a6.1,6.1,0,0,0,4,1.6,5.6,5.6,0,0,0,4.5-2,4.7,4.7,0,0,0,1.5-3.9m-3.1-8.7,2.3,2c.9.8,1.1,1.6.5,2.4a1.7,1.7,0,0,1-2.5-.2l-2.1-1.9Zm-4,10-2.7-2.3,2.1-2.5,2.5,2.2c1,.9,1.3,2,.7,2.7a1.8,1.8,0,0,1-2.6-.1" transform="translate(-5 -4.5)"></path>
  <path class="cls-5" d="M239.5,235.2a14.6,14.6,0,0,1,2.7-2,16,16,0,0,1,5.3-1v4.2a10.2,10.2,0,0,0-3.4.6,4.4,4.4,0,0,0-2.4,2.5,1.3,1.3,0,0,0,.4,1.4.9.9,0,0,0,1.1.2l1.7-.7a14.8,14.8,0,0,1,4.7-1.7,4.8,4.8,0,0,1,4.1,1.4,5.5,5.5,0,0,1,1.7,4.2c-.1,1.3-.7,3.6-3.7,5.5a15,15,0,0,1-4.6,1.5l-.6-4.1,2.9-.8c2.1-1,2.2-3.4.5-3.4a13,13,0,0,0-3.3,1.3,19.5,19.5,0,0,1-2.2,1,5.1,5.1,0,0,1-5.3-1.1,5.4,5.4,0,0,1-1.5-5.5,5.6,5.6,0,0,1,1.9-3.5" transform="translate(-5 -4.5)"></path>
  <polygon class="cls-5" points="127.5 26.2 133.1 34.4 137.5 33.6 126.2 16.8 125.6 17 120.5 36.6 125 35.8 127.5 26.2"></polygon>
</svg>
