<?xml version="1.0" encoding="UTF-8"?>
<svg xmlns="http://www.w3.org/2000/svg" xmlns:xlink="http://www.w3.org/1999/xlink" version="1.1" x="0px" y="0px" viewBox="0 0 308.36 249.88" style="enable-background:new 0 0 308.36 249.88;" xml:space="preserve">
<style type="text/css">
	.st0{fill:#FFFFFF;}
	.st1{fill:#919798;}
	.st2{fill:#00428B;}
	.st3{fill:#F48326;}
</style>
<g id="Template">
</g>
<g id="Type">
</g>
<g id="Logos">
	<g>
		<g>
			<path class="st0" d="M158.1,233.47l-17.15-22.27c-21.81-7.2-37-26.91-38.4-49.85l-10.64-13.81     c-10.12,4.36-20.24,11.27-20.24,11.27l-31.9-32.02l13.44-29.47L29.18,66.09h38.25l7.4-16.13l18.94-7.64l2.1-5.71l15.35,7.01     l3.65-12.75l2.51-0.83c12.14-4.04,26.13-6.22,40.45-6.3c0.41-0.02,4.96,0.06,5.07,0.06c0.53,0,2.77,0.12,2.77,0.12     c12.12,0.58,23.5,2.6,33.84,6l2.54,0.84l3.36,12.17l5.53-4.18l31.03,11.03l7.49,16.34h38.44l-24.3,31.35l13.24,29.05l-32.4,33.36     c0,0-11.88-8.66-20.02-11.89l-9.77,12.59c-1.11,23.49-17.09,44.08-39.55,50.99L158.1,233.47L158.1,233.47z"></path>
			<g>
				<g>
					<polygon class="st1" points="158.13,218.04 268.65,75.53 48.34,75.53      "></polygon>
					<path class="st2" d="M39.26,71.06l118.86,154.28L277.77,71.06L39.26,71.06z M268.65,75.53l-110.52,142.5L48.34,75.53       L268.65,75.53z"></path>
				</g>
			</g>
		</g>
		<g>
			<path class="st2" d="M252.7,85.45l-0.04-0.09l-0.09-0.05l-7.07-4.75l2.63-5.03l0.08-0.15l-0.07-0.16l-9.73-21.33l-0.06-0.13     l-0.14-0.05l-26.24-9.34l-0.18-0.06l-0.15,0.12l-6.96,5.31l-0.08,0.06l-0.04,0.09l-1.19,2.92c0,0-10.88-2.73-26.85-4.33     c-1.62-0.16-5.97-0.52-12.91-1.07l-0.67-0.05l-0.7-0.05l-0.16-0.01l-0.11,0.11l-5.19,5.17l0.01-5.3c0,0-14.71,0.83-24.34,2.14     c-9.63,1.31-19.1,3.7-19.1,3.7l-1.74-3.73l-0.06-0.12l-0.12-0.06L99.04,43.5l-0.35-0.16l-0.13,0.36l-1.44,3.92l-0.33-0.79     l-0.14-0.32l-0.33,0.13l-17.72,7.1l-0.13,0.06l-0.06,0.13l-32.68,71.8l26.83,26.88l1.25-0.71c0.81-0.46,1.95-1.14,3.24-1.9     c3.24-1.91,7.69-4.53,9.82-5.55l0.43-0.21c2.75-1.33,4.13-2,17.17-7.58l1.09-0.41c0.02,0,1.47-0.57,4.15-1.46     c7.16-2.38,25.77-7.92,43.81-7.92h0.2c0.72,0,1.44,0.01,2.16,0.03c12.24,0.34,26.56,2.94,36.42,5.06     c9.48,2.04,16.61,4.01,18.64,4.58l1.36,0.42c8.97,3.47,19.94,9.19,30.1,15.7l1.29,0.83l27.16-27.97L252.7,85.45z"></path>
			<g>
				<path class="st3" d="M249.78,87.94l-26.1-17.43l-4.54-12.75l8.08,2.87l3.27,7.97l12.29,3.94L235.6,56.7l-23.19-8.24l-4.26,3.29      l7.71,25.06l24.82,17.54l6.36,15.86l-10.32-4.66l-3.54-9.87l-12.66-3.73l6.77,22.31c2.09,0.77,4.16,1.56,6.22,2.39      c5.64,2.28,11.16,4.81,16.55,7.57c3.74,1.91,7.41,3.94,11.03,6.08l5.4-5.54L249.78,87.94z"></path>
				<path class="st3" d="M73.73,99.75l8.7-7.77l2.08,2.42l-8.59,24.7c4.7-2.07,9.48-3.96,14.33-5.68l6.22-20.37l-5.37-8.87      l11.13-10.57l6.5-21.66l-7.99-3.59l-7.18,20.42l-11.51,9.91l10.49-26.47l-11.28,4.5l-31.07,68.16l4.86,4.88      c2.88-1.68,5.81-3.29,8.77-4.84L73.73,99.75z"></path>
				<path class="st3" d="M152.46,51.14l-9.53,0.5l-4.48,51.13c4.05-0.39,8.13-0.65,12.24-0.78L152.46,51.14z"></path>
				<path class="st3" d="M180.73,92.16l-11.07-0.66l-1.78-31.31l9.37,0.46l-1.1-8.63l-12.6-0.9l-5.64,5.63l-0.01,39.16l5.92,6.06      c6.11,0.19,12.16,0.64,18.13,1.37L180.73,92.16z"></path>
				<path class="st3" d="M118.04,71.32l3.99,19.44l-2.58,14.73c3.86-0.74,7.76-1.38,11.7-1.9l0.02,0l6.16-51.27l-8.85,1.29      l-2.91,16.79l-3.29-15.8l-10.4,2.61l-14.47,53.83c4.17-1.3,8.4-2.47,12.67-3.51L118.04,71.32z"></path>
				<path class="st3" d="M194.94,89.33l3.11-4.2l4.55,3.75l4.19,19.06c4.39,1.1,8.73,2.35,13.02,3.74l-7.81-27.96l-8.05-6.58      l4.59-6.11l-3.81-14.19L195,54.66l3.82,14.29l-6.05,8.09l-4.47-23.51l-9-1.14c0,0,4.51,34.47,6.64,51.46      c4.08,0.58,8.11,1.28,12.12,2.1L194.94,89.33z"></path>
				<g>
					<path class="st1" d="M139.85,112.48c0,0,3.75-2.2,11.25-3.03l-0.24-5.91c-4.11,0.14-8.2,0.4-12.25,0.78       C138.96,106.64,139.49,110.08,139.85,112.48z"></path>
					<path class="st1" d="M163.69,109.1c3.05,0.36,6.31,1.35,9.18,2.16c2.59,0.62,5.38,1.73,7.67,2.75l1.26-9.09       c-6.03-0.74-11.73-1.19-17.9-1.39C163.81,105.3,163.81,107.79,163.69,109.1z"></path>
					<path class="st1" d="M124.22,123.51c3.49-2.6,5.59-5.27,9.26-7.5c-0.7-3.3-1.63-7.58-2.3-10.85c-4,0.53-7.96,1.19-11.89,1.95       C120.8,112.01,122.72,118.57,124.22,123.51z"></path>
					<path class="st1" d="M183.58,115.85c3.4,1.97,6.06,4.2,9.1,7.16l0.6,0.46l4.8-15.88c-4.13-0.86-8.15-1.6-12.36-2.19       L183.58,115.85z"></path>
					<path class="st1" d="M198.71,129.64l11.44,2.69l9.62-19.03c-4.43-1.45-8.71-2.64-13.26-3.78L198.71,129.64z"></path>
					<path class="st1" d="M106.72,132.33c2.99-1.1,7.15-2.61,11.04-3.64l-7.42-19.63c-4.49,1.09-8.4,2.23-12.77,3.61       C100.33,119.24,103.43,126.02,106.72,132.33z"></path>
					<path class="st1" d="M89.47,139.4c0.66-0.57,7.15-3.37,11.6-5.25c-3.38-6.11-7.44-12.85-10.82-19.07       c-4.84,1.73-9.25,3.52-13.93,5.6L89.47,139.4z"></path>
					<path class="st1" d="M73.28,147.99c2.07-1.24,4.26-2.51,6.67-3.91l-15.17-17.9c-2.88,1.5-5.73,3.06-8.54,4.7L73.28,147.99z"></path>
					<path class="st1" d="M216.2,134.68c9.11,3.53,21.84,10.67,26.91,14.07c2.34-2.23,15.01-15.54,16.75-17.36       c-10.54-6.18-21.6-11.44-33.12-15.67L216.2,134.68z"></path>
					<polygon class="st1" points="161.94,108.8 157.59,108.65 157.51,98.08 162.04,102.78      "></polygon>
				</g>
			</g>
		</g>
		<g>
			<path class="st2" d="M158.58,106.71c-28.27,0-51.18,22.92-51.18,51.19c0,28.26,22.91,51.18,51.18,51.18     c28.26,0,51.18-22.91,51.18-51.18C209.76,129.63,186.84,106.71,158.58,106.71z"></path>
			<g>
				<path class="st3" d="M161.73,110.54c-3.93,1.37-7.71,3.37-11.46,5.1c-2.56-1.53-4.02-1.92-5.75-3.03      C149.9,110.65,155.7,110.36,161.73,110.54z"></path>
				<path class="st3" d="M198.39,132.27c-12.06-12.15-30.15-11.27-45.5-15.57c0,0,9.03-4.3,13.69-5.49      C179.13,113.35,191.27,120.85,198.39,132.27z"></path>
				<path class="st3" d="M130.6,134.1c-11.59,17.77-13.15,39.67-3.93,58.86c-11.92-10.01-19.03-29.4-13.67-48.23      C117.38,138.6,123.02,133.19,130.6,134.1z"></path>
				<path class="st3" d="M143,146.75c6.24,18.56,7.63,39.12,23.79,57.81c-12.6,2.56-25.09-1.22-35.05-7.53      c-12.33-18-11.17-44.85,1.16-62.29C138.92,136.47,142.19,144.33,143,146.75z"></path>
				<path class="st3" d="M134.34,132.78c1.87-2.64,3.99-5.14,6.37-7.47c26.22,7.4,51.22,34.59,55.5,61.3      c-1.25,2.02-4.24,4.83-6.25,6.84c-6.52,5.86-13.7,8.89-20.59,10.54c-12.24-12.7-16.27-29.19-20.6-45.44      c-3.32-12.47-5.62-21.89-14.42-25.7L134.34,132.78z"></path>
				<path class="st3" d="M195.6,132.66c-12.66-11.17-30.3-9.74-45.1-14.95c-2.86,1.75-5.66,3.82-8.04,5.96      c26.22,8.22,50.01,33.86,55.68,60.35c4.11-5.94,6.59-12.84,7.6-20.15C206.36,152.64,206.25,142.42,195.6,132.66z"></path>
				<path class="st3" d="M138.54,124.49c-2.53,2.43-4.42,4.83-6.4,7.62l-0.06-0.02c-6.94-1.55-12.42,2.04-16.81,6.51      c2.1-5.3,6.5-11.59,11.15-15.69C130.72,123.09,133.84,123.02,138.54,124.49"></path>
				<path class="st3" d="M140.4,122.86c2.48-2.21,4.88-4.14,7.87-5.93l-6.72-3.33c-4.48,1.83-9.27,4.21-12.56,7.22      C134.07,121.42,136.25,121.73,140.4,122.86z"></path>
			</g>
		</g>
		<g>
			<path class="st2" d="M151.33,43.97l-2.07,2.06l-3.55,0.21l-1.32-1.15l-1.67,1.42l-3.86,0.36l-1.7-1.62l2.23-15.12l2.93-0.4     l-1.58,13.35l2.09-0.23l1.63-13.38l2.89-0.28l-1.2,13.28l2.05-0.19l1.05-13.22c1.23-0.13,1.87-0.12,2.94-0.18L151.33,43.97z"></path>
			<path class="st2" d="M160.81,28.68l0.03,9.52l1.87-0.01l-0.11-9.46c0,0,1.96,0.06,2.84,0.14l0.38,10.67l-1.8,1.79l-0.59,0.03     l0.08,4.57l-3.17-0.09l-0.04-4.57l-0.64-0.05l-1.92-1.96l0.12-10.61C158.89,28.63,160.81,28.68,160.81,28.68z"></path>
			<path class="st2" d="M137.26,30.44l-0.5,3.13l-3.54,0.67l-0.64,3.65c1.3-0.23,2.09-0.36,3.63-0.56     c-0.22,1.36-0.28,1.83-0.52,3.11l-3.55,0.51l-0.67,3.5l3.64-0.53c0,0-0.36,2.36-0.55,3.41c-2.55,0.31-5.11,0.68-7.55,1.1     c0,0,2.74-12.68,3.42-16.6L137.26,30.44z"></path>
			<path class="st2" d="M123.94,48.99l-3.69,0.72l1.69-6.91l-1.14-2.48l-2.9,9.95l-3.6,0.82c1.5-5.39,3.03-10.78,4.53-16.17     c1.24-0.41,2.16-0.7,3.25-1.02c0.4,0.91,1.37,2.74,1.37,2.74l0.87-3.38c0,0,2.28-0.6,3.43-0.86L123.94,48.99z"></path>
			<path class="st2" d="M175.78,31.61c0.37,4.33,1.08,8.48,1.52,12.52l-1.61,2.46l-5.21-0.35l-1.88-2.05     c-0.34-4.42-0.56-8.88-0.84-13.32c0.48-0.63,1.21-1.12,1.79-1.74l4.34,0.42L175.78,31.61z M170.92,32.34l0.92,10.33l1.83,0.14     l-0.97-10.27L170.92,32.34z"></path>
			<path class="st2" d="M192.62,33.16c0.65,2.48,1.92,7.59,1.92,7.59l1.24,0.25l0.6-0.82l-1.54-6.36c0,0,1.53,0.43,3.17,0.92     l1.64,6.16l-0.77,1.11l1.43,1.57l2.16,7.5l-3.56-0.8l-1.4-5.26l-2.22-0.5l1.21,5.23l-3.61-0.71c-1.26-5.64-3.54-16.74-3.54-16.74     S191.17,32.69,192.62,33.16z"></path>
			<path class="st2" d="M186.98,33.76l1.19,6.18l-0.69,0.95l1.21,1.45l1.05,6.14l-3.47-0.6l-0.95-5.11l-2.09-0.23l0.74,4.99     l-3.46-0.43l-2.3-16.97l6.62,1.17L186.98,33.76z M181.97,33.98l0.62,4.3l1.96,0.22l-0.83-4.21L181.97,33.98z"></path>
		</g>
	</g>
</g>
</svg>
