<?xml version="1.0" encoding="UTF-8"?>
<svg xmlns="http://www.w3.org/2000/svg" xmlns:xlink="http://www.w3.org/1999/xlink" version="1.1" id="Layer_1" x="0px" y="0px" viewBox="0 0 471 471" style="enable-background:new 0 0 471 471;" xml:space="preserve">
<style type="text/css">
	.st0{fill:#DB0032;}
	.st1{fill:#FFFFFF;}
</style>
<g>
	<path class="st0" d="M57.9,173.1v107.1c60,8.8,131.6,3,182.2-71c2.1-3.1,3.4-0.9,2,1.8c-14.1,28.8-47.6,55.4-76.5,78.1   C137.8,310.8,63.3,389,64.3,457.7c0.1,5.3,0.2,3.8,4.9,0.4c22.6-16.8,66.9-17.3,94.1-4.3c3.8,1.8,4.1,1.2,3.6-3.7   c-5.2-53.3,6.8-111.5,29.6-145.3c15.7-23.4,58.1-83.7,65.4-131c0.8-4.9-1.8-4.1-7.9,2.3c-48,50.7-134.7,49.4-190.7-4.3   C59.8,168.6,58.2,170.1,57.9,173.1"></path>
	<polygon class="st1" points="161.9,9.8 158.3,20.7 146.7,20.7 156.1,27.5 152.7,38.3 161.9,31.7 170.9,38.3 167.5,27.6 176.9,20.7    165.3,20.7  "></polygon>
	<polygon class="st1" points="230.2,49.7 233.7,60.5 245.3,60.5 235.9,67.4 239.4,78.1 230.2,71.5 221.1,78.1 224.6,67.4    215.1,60.5 226.7,60.5  "></polygon>
	<polygon class="st1" points="200.9,18.9 204.4,29.8 216,29.8 206.6,36.7 210,47.5 200.9,40.8 191.8,47.5 195.2,36.6 185.8,29.8    197.4,29.8  "></polygon>
	<polygon class="st1" points="241.4,87.3 244.9,98.2 256.5,98.2 247.1,105 250.5,115.8 241.4,109.1 232.3,115.8 235.8,105    226.3,98.2 237.8,98.2  "></polygon>
	<polygon class="st1" points="236.5,127.1 240,138 251.6,138 242.2,144.9 245.6,155.6 236.5,149 227.4,155.6 230.8,144.8 221.4,138    233,138  "></polygon>
	<polygon class="st1" points="214.5,158.9 217.9,169.8 229.6,169.8 220.2,176.6 223.6,187.4 214.6,180.7 205.4,187.4 208.9,176.6    199.4,169.8 211,169.8  "></polygon>
	<polygon class="st1" points="180,176.6 183.5,187.5 195,187.5 185.6,194.4 189.1,205.2 180,198.6 170.9,205.2 174.3,194.4    164.9,187.5 176.5,187.5  "></polygon>
	<polygon class="st1" points="92.3,46.1 88.7,57 77.2,57 86.5,63.9 83.1,74.6 92.2,68 101.4,74.6 97.9,63.9 107.4,57 95.7,57  "></polygon>
	<polygon class="st1" points="120.9,18.9 117.4,29.8 105.8,29.8 115.2,36.7 111.7,47.5 120.9,40.8 130,47.5 126.6,36.6 136,29.8    124.4,29.8  "></polygon>
	<polygon class="st1" points="78.9,82.4 75.5,93.3 63.9,93.3 73.3,100.1 69.9,110.9 78.9,104.3 88,110.9 84.6,100.1 94.1,93.3    82.5,93.3  "></polygon>
	<polygon class="st1" points="82.5,122.2 79,133.1 67.4,133.1 76.8,140 73.4,150.7 82.5,144.1 91.6,150.7 88.1,140 97.5,133.1    85.9,133.1  "></polygon>
	<polygon class="st1" points="104.4,154.7 101,165.6 89.4,165.6 98.8,172.4 95.3,183.2 104.4,176.5 113.6,183.2 110.1,172.4    119.6,165.6 108,165.6  "></polygon>
	<polygon class="st1" points="139,175.3 135.5,186.2 123.9,186.2 133.3,193.1 129.9,203.8 138.9,197.2 148.2,203.8 144.6,193    154.1,186.2 142.5,186.2  "></polygon>
	<path class="st1" d="M328.2,432.5c-21.5,0-20.6-27.5-20.6-59.2c0-31.7,3-59.2,20.6-59.2c21.5,0,22.7,27.4,22.7,59.2   C350.9,405,346.4,432.5,328.2,432.5 M354.8,276.9c-19.2,0-38.9,7.7-49.2,23.8h-0.4l1.9-27.8c1.1-18.8,5.4-70,31.5-70   c12.5,0,9.7,16.6,11.1,24.2c3.5,17.7,11.2,38,35.4,38c16.5,0,33.8-10.9,33.8-33.3c0-34.5-28.8-57.1-63.9-57.1   c-89.9,0-126,68.6-126,151.7c0,72.1,28,134.4,105.2,134.4c50.1,0,90.8-35.7,90.8-95.6C425.2,314.4,398.4,276.9,354.8,276.9"></path>
</g>
</svg>
