<?xml version="1.0" encoding="UTF-8"?>
<svg xmlns="http://www.w3.org/2000/svg" xmlns:xlink="http://www.w3.org/1999/xlink" viewBox="0 0 1002.64 821.14">
  <defs>
    <style>.cls-1{fill:none;}.cls-2{clip-path:url(#clip-path);}.cls-3{fill:#f9a333;}.cls-4{clip-path:url(#clip-path-2);}.cls-5{fill:#e66735;}.cls-6{fill:#bb6130;}.cls-7{fill:#2a3236;}</style>
    <clipPath id="clip-path">
      <rect class="cls-1" width="1002.64" height="821.14"></rect>
    </clipPath>
    <clipPath id="clip-path-2">
      <rect class="cls-1" width="1002.64" height="821.13"></rect>
    </clipPath>
  </defs>
  <g id="Layer_2" data-name="Layer 2">
    <g id="Layer_1-2" data-name="Layer 1">
      <g id="Sunburst">
        <g class="cls-2">
          <polygon class="cls-3" points="727.88 0 635.92 91.85 470.41 17.58 447.63 165.38 300.13 197.34 387.41 249.93 299.61 293.99 374.19 300.46 67.33 539.16 376 375.18 44.86 627.26 397.34 443.53 20.83 726.6 435.81 505.49 0 821.13 482.81 556.74 155.4 821.13 552.68 592.85 546.13 638.87 612.38 602.07 762.04 743.56 841.7 504.25 956.9 496.83 898.29 351.67 1002.63 270.01 867.7 217.46 901.89 72.3 787.05 124.87 727.88 0"></polygon>
          <g class="cls-4">
            <path class="cls-5" d="M883.5,353.78C878,486.46,766,589.56,633.33,584.07S397.56,466.6,403.06,333.94,520.53,98.15,653.17,103.62,889,221.1,883.5,353.78"></path>
            <path class="cls-6" d="M672.72,551.29c-132.64-5.51-235.79-117.52-230.29-250.18a239.27,239.27,0,0,1,67.5-157.29A239.92,239.92,0,0,0,403.06,334c-5.49,132.66,97.6,244.67,230.27,250.12a239.7,239.7,0,0,0,182.63-73,239.14,239.14,0,0,1-143.24,40.22"></path>
            <path class="cls-7" d="M883.61,346.66a234.57,234.57,0,0,0-1-25.52,110.87,110.87,0,0,0-49.89-19.55c-3.69-.46-7.23-.67-10.85-.94a298,298,0,0,0-10.7-46.57c2.5.16,5,.27,7.53.44,16.91,1.26,33.57,3.17,50,5.57-2.31-6.12-4.86-12.12-7.6-18-18.5-2.81-37.27-5-56.29-6.42h-.18a284.75,284.75,0,0,0-22.24-44.54c12.28-2.53,23.24-7.55,32.12-15.94-4.55-4.59-9.28-9-14.18-13.27-7.72,7.11-17.73,10.87-29.19,12.39-1.75-2.45-3.5-4.92-5.33-7.29a263.36,263.36,0,0,0-55.94-54.17,240.3,240.3,0,0,0-56.7-9.21c-1.07,0-2.14,0-3.23-.05,36.52,14.36,69.16,38.49,95.39,70.82-25-2.41-53.85-10.8-82.4-19.16-8.42-2.51-16.68-4.94-24.69-7.14-48.56-13.43-85.91-15.57-113.94-13.14a241.24,241.24,0,0,0-56.07,44.17c30.26-12.64,91.34-34.2,165.42-13.69,7.87,2.18,16.06,4.56,24.36,7,32.75,9.64,69.51,20.37,101.24,20.71a265.13,265.13,0,0,1,22.62,41.2q-9.36-.44-18.63-.6C608.86,231.09,476.5,277.29,403,351a239.75,239.75,0,0,0,5,42.89c20.73-29.75,51.4-56.6,91-78.88,74.72-42,173.88-64.1,279.23-62.28,3.63.06,7.28.21,10.9.34A270.58,270.58,0,0,1,801,300.22c-67.85,2.88-111.85,45.23-162.34,90.3C593.28,431.09,538,471.5,457,495.83a241.18,241.18,0,0,0,24.9,26.24c76.27-30.7,127-78.53,169.76-116.81,48.61-43.46,90.33-85.14,151.62-87.2a280.92,280.92,0,0,1,.09,51.64c-8.25,94.19-62.77,174-137.18,213.44a236.31,236.31,0,0,0,55-11.86c6-4.93,11.78-10.11,17.39-15.64,48.76-48,79.06-113.45,85.24-184.16a306.68,306.68,0,0,0,.1-52.57c3.08.34,6.1.59,9.25,1.13,20.88,3.41,37.47,13.94,50.42,26.62"></path>
          </g>
        </g>
      </g>
    </g>
  </g>
</svg>
