<?xml version="1.0" encoding="UTF-8"?>
<!-- Generator: Adobe Illustrator 25.4.1, SVG Export Plug-In . SVG Version: 6.00 Build 0)  -->
<svg xmlns="http://www.w3.org/2000/svg" xmlns:xlink="http://www.w3.org/1999/xlink" version="1.1" id="Layer_1" x="0px" y="0px" viewBox="0 0 360 360" style="enable-background:new 0 0 360 360;" xml:space="preserve">
<style type="text/css">
	.st0{fill:#FFFFFF;}
	.st1{fill:#C8102E;}
</style>
<g>
	<path d="M267.63,267.41c5.55-5.57,10.6-11.69,14.99-18.2c4.47-6.62,8.31-13.69,11.41-21.03c6.45-15.26,9.73-31.47,9.73-48.18   c0-16.71-3.27-32.92-9.73-48.18c-3.1-7.33-6.94-14.41-11.41-21.03c-4.43-6.55-9.51-12.72-15.12-18.32   c-2.43-2.43-4.97-4.76-7.59-6.99L315,30.4H154.52L92.58,92.34c-0.04,0.04-0.08,0.09-0.13,0.13c-5.6,5.6-10.69,11.77-15.12,18.32   c-4.47,6.62-8.31,13.69-11.41,21.03c-6.45,15.26-9.73,31.47-9.73,48.18c0,16.71,3.27,32.92,9.73,48.18   c3.1,7.33,6.94,14.41,11.41,21.03c4.43,6.55,9.51,12.72,15.12,18.32c2.44,2.44,4.98,4.78,7.62,7.01L45,329.6h160.44L267.63,267.41z   "></path>
	<g>
		<path class="st0" d="M260.27,260.65c44.47-44.47,44.46-116.59-0.02-161.06c-2.43-2.43-4.94-4.72-7.52-6.88l-67.36,67.36    c3.32,0.93,6.45,2.7,9.06,5.3l0,0c0.01,0.01,0.01,0.01,0.02,0.02c8.13,8.13,8.13,21.32,0,29.46l0,0L69.69,319.61h14.62    l117.45-117.45c12.13-12.13,12.17-31.78,0.11-43.96l7.31-7.31c16.1,16.21,16.06,42.41-0.11,58.58L98.93,319.61h14.62    l102.84-102.84c20.21-20.21,20.24-52.94,0.11-73.2l7.31-7.31c24.17,24.29,24.13,63.57-0.11,87.81h0l-95.53,95.53h14.62L231,231.39    h0c28.28-28.28,28.32-74.11,0.11-102.43l7.31-7.31c32.24,32.36,32.21,84.74-0.11,117.05l0,0l-80.91,80.91h14.62l73.6-73.6l0,0    c36.35-36.35,36.39-95.27,0.11-131.67l7.36-7.36c40.34,40.46,40.31,105.97-0.11,146.38l-66.24,66.24h14.62L260.27,260.65z"></path>
	</g>
	<path class="st1" d="M99.75,99.45c-44.47,44.47-44.46,116.59,0.02,161.06c2.43,2.43,4.94,4.72,7.52,6.88l67.36-67.36   c-3.32-0.93-6.45-2.7-9.06-5.3l0,0c-0.01-0.01-0.01-0.01-0.02-0.02c-8.13-8.13-8.13-21.32,0-29.46v0L290.5,40.33h-14.62   L158.26,157.95l0,0c-12.13,12.13-12.17,31.78-0.11,43.96l-7.31,7.31c-16.1-16.21-16.06-42.41,0.11-58.58l0,0L261.27,40.33l-14.62,0   L143.64,143.33c-20.21,20.21-20.24,52.94-0.11,73.2l-7.31,7.31c-24.17-24.29-24.13-63.57,0.11-87.81l0,0l95.7-95.7h-14.62   l-88.39,88.39v0c-28.28,28.28-28.32,74.11-0.11,102.43l-7.31,7.31c-32.24-32.36-32.21-84.74,0.11-117.05h0l81.08-81.08h-14.62   L114.4,114.1l0,0c-36.35,36.35-36.39,95.27-0.11,131.67l-7.36,7.36c-40.34-40.46-40.31-105.97,0.11-146.38l66.41-66.41h-14.62   L99.75,99.45z"></path>
</g>
</svg>
