<?xml version="1.0" encoding="UTF-8"?>
<svg xmlns="http://www.w3.org/2000/svg" width="22" height="25" viewBox="0 0 22 25" fill="none">
  <g clip-path="url(#clip0_30_80)">
    <path d="M21.9139 0L18.777 3.14749L16.1565 0.529168L13.5234 3.14749L10.9072 0.531284L8.291 3.14961L5.67268 0.531284L3.05859 3.14961L0 0.0635001V14.0039C0 20.066 4.86411 25 10.9241 25C16.9842 25 21.9139 20.066 21.9139 14.0039V0Z" fill="white"></path>
    <path d="M0.977905 15.9131C1.23614 17.2254 1.74837 18.4594 2.50403 19.5834C2.95911 18.7833 3.8714 17.7906 5.6621 17.3694C5.52452 16.91 5.40175 16.4211 5.29803 15.9131H0.977905Z" fill="#5B6670"></path>
    <path d="M3.21729 20.5275C5.15192 22.7945 7.93958 24.1026 10.8754 24.1216C10.5981 23.9798 10.3272 23.8253 10.0668 23.656C8.82223 22.8516 7.10984 21.2853 6.00494 18.3812C4.26504 18.7601 3.52844 19.7465 3.21729 20.5275" fill="#5B6670"></path>
    <path d="M7.07812 18.2309C7.86341 20.2037 9.04875 21.7192 10.6045 22.7352C11.6332 23.4083 12.6196 23.7152 13.2694 23.8549C14.895 23.476 16.4148 22.6908 17.6721 21.5837C16.6793 21.4758 15.6633 20.9043 14.5881 20.301C12.9117 19.3591 10.8225 18.1886 8.00523 18.1886C7.70043 18.1886 7.38928 18.2034 7.07812 18.2309V18.2309Z" fill="#5B6670"></path>
    <path d="M11.3157 10.7823H7.68982V15.0982H9.19477V11.6354H10.3251V15.0982H11.7602V11.3877C11.7602 11.0596 11.5591 10.7823 11.3136 10.7823H11.3157Z" fill="#592C82"></path>
    <path d="M12.3994 10.7823V14.4843C12.3994 14.8145 12.5984 15.0982 12.8439 15.0982H16.4655V12.4777H15.0199V14.243H13.8896V11.6141H16.4655V10.7802H12.3994V10.7823Z" fill="#592C82"></path>
    <path d="M3.68296 10.7823L2.86381 12.5265H2.39179V10.7823H0.893188V15.0982H2.39179V13.3626H2.86381L3.68296 15.0982H5.18156L4.12534 12.9435L5.18156 10.7823H3.68296Z" fill="#592C82"></path>
    <path d="M7.13111 10.7823H5.57959V15.0982H7.13111V10.7823Z" fill="#592C82"></path>
    <path d="M21.0249 11.9507V10.7844H17.0455V12.755C17.0455 13.0831 17.2445 13.3519 17.49 13.3519H19.5178V14.2917H17.0455V15.1003H21.027V13.1191C21.027 12.8122 20.8577 12.5243 20.6291 12.5243H18.5378V11.6205H19.5834V11.9507H21.0228H21.0249Z" fill="#592C82"></path>
    <path d="M16.7915 6.40503H15.5215L18.1419 3.78459L16.1565 1.80127L13.5234 4.41959L10.9072 1.80127L6.30552 6.40503H5.03551L7.65172 3.78036L5.67263 1.80127L3.05854 4.41959L0.893188 2.26905V6.5659V9.99067H21.0248V6.6675V2.16957L16.7915 6.40503Z" fill="#592C82"></path>
    <path d="M5.28955 9.16092C5.28955 9.2731 5.38057 9.36412 5.49275 9.36412H6.62305V9.05932H5.70018V8.07295H6.62305V7.77026H5.28955V9.16092Z" fill="white"></path>
    <path d="M3.44592 7.77246V9.36631H3.85656V8.94933H4.36667V9.36631H4.77943V7.97566C4.77943 7.85713 4.68418 7.77246 4.55294 7.77246H3.44592ZM4.36879 8.64665H3.85867V8.07726H4.36879V8.64665Z" fill="white"></path>
    <path d="M20.0745 7.77246H19.141C19.031 7.77246 18.9399 7.86348 18.9399 7.97354V9.161C18.9399 9.27318 19.031 9.3642 19.141 9.3642H20.0745C20.1867 9.3642 20.2756 9.27106 20.2756 9.161V7.97354C20.2756 7.86136 20.1845 7.77246 20.0745 7.77246ZM19.8628 9.0594H19.3548V8.07514H19.8628V9.0594Z" fill="white"></path>
    <path d="M1.60022 8.51749C1.60022 8.62967 1.69124 8.72069 1.80342 8.72069H2.52309V9.06147H1.60022V9.36627H2.93372V8.6212C2.93372 8.51749 2.85541 8.4307 2.75169 8.42012H2.01085V8.07722H2.93372V7.77454H1.60022V8.5196V8.51749Z" fill="white"></path>
    <path d="M10.0774 7.77246H8.94714V9.36631H9.35989V8.94933H9.87001V9.36631H10.2828V7.97566C10.2828 7.86348 10.1917 7.77246 10.0796 7.77246H10.0774ZM9.87213 8.64665H9.36201V8.07726H9.87213V8.64665Z" fill="white"></path>
    <path d="M17.145 8.07514H17.6065V9.3642H18.0171V8.07514H18.4785V7.77246H17.145V8.07514Z" fill="white"></path>
    <path d="M12.8757 7.77246H10.8268V9.36631H11.2395V8.07726H11.7454V9.36631H12.1624V8.07726H12.6662V9.36631H13.0789V7.97566C13.0789 7.86348 12.9879 7.77246 12.8757 7.77246V7.77246Z" fill="white"></path>
    <path d="M16.5248 7.77246H15.3945V9.36631H15.8052V8.07726H16.3153V9.36631H16.728V7.97566C16.728 7.86348 16.637 7.77246 16.5248 7.77246Z" fill="white"></path>
    <path d="M13.6377 9.161C13.6377 9.27318 13.7287 9.3642 13.8409 9.3642H14.9712V9.0594H14.0504V8.71861H14.9712V8.41593H14.0504V8.07514H14.9712V7.77246H13.6377V9.16311V9.161Z" fill="white"></path>
    <path d="M8.21273 8.78415H8.43287V7.97346C8.43287 7.85493 8.3355 7.77026 8.20638 7.77026H7.09937V9.36412H7.51V8.78415H7.80845L8.05398 9.36412H8.45615L8.21273 8.78415V8.78415ZM8.02012 8.48147H7.51V8.07506H8.02012V8.48147Z" fill="white"></path>
    <path d="M7.78507 17.1344C9.92926 17.09 12.0502 17.6276 14.7574 19.1706C16.7576 20.3115 17.6361 20.6565 18.2372 20.5084C18.7896 20.3729 19.3019 20.0469 20.2078 18.1335C20.5528 17.4032 20.8005 16.5396 20.9211 15.9131H6.36902C6.47062 16.3534 6.5701 16.7915 6.70345 17.1958C7.05482 17.1556 7.41889 17.1344 7.78507 17.1344V17.1344Z" fill="#5B6670"></path>
  </g>
  <defs>
    <clipPath id="clip0_30_80">
      <rect width="21.9139" height="25" fill="white"></rect>
    </clipPath>
  </defs>
</svg>
