<?xml version="1.0" encoding="UTF-8"?>
<svg xmlns="http://www.w3.org/2000/svg" id="Layer_1" data-name="Layer 1" viewBox="0 0 3000 2000">
  <defs>
    <style>.cls-1{fill:#fff;}.cls-2{fill:#060000;}.cls-3{fill:#bbc3ca;}</style>
  </defs>
  <path class="cls-1" d="M1179,1303.64l-76.73,114.24,126.18-41.19L1279.8,1500l38.54-132.38,141.79,36.53-92-106.32,110.65-91.2-98.62,6,64.92-73.17h127.24l145.41-257.57V712.31H1614.63l-49.58,87.75-9.42,66.43-74.16,131.93h-68.25l67-118.34V712.31H1373.39l-47.61,87.25-8.84,67-116.57,207.61,18.16,45.69-22.48-24.31,9.36,125.46-135.69,5.7Zm57.69-164.14H1285l-14.44,36.58Z"></path>
  <path class="cls-1" d="M628,997.21q-63.18,15.81-125.9,34c-4.53,1.32-9.07,2.63-13.58,4V929.52q9.24-2.74,18.54-5.4,51.26-14.79,102.9-28,9-2.33,18-4.58v57.24q47.92-12,96.08-22.69V856.26q-16.78-25.54-33.57-50.91c-8.19,1.91-16.34,3.82-24.52,5.78l-1.1.27Q562.18,836,460.7,866.69L453.35,869q-12.83,3.91-25.6,7.93-17,35.49-34,71.21h0v141.56q25.47,17.52,51,35.45,21-6.45,41.9-12.62,64.23-18.93,128.92-35.39l13.67-3.44V1183.1c-6,1.52-12,3-18,4.57q-53.49,13.66-106.64,29c-6,1.71-11.91,3.46-17.91,5.22v-57.87q-47.5,14-94.73,29.33v70.47l0,0q16.43,23.89,32.94,47.92,12.38-3.88,24.78-7.67l8.15-2.5q103.14-31.32,207.56-56.3,12.81-3.09,25.61-6,17.17-33.91,34.35-67.64V1026.46Q699.67,1006,674.1,986,651,991.45,628,997.21"></path>
  <path class="cls-1" d="M2608.11,1117.29q-25.14-34.27-50.39-68.18-22.77-7-45.61-13.73-62.62-18.45-125.79-34.57c-4.56-1.13-9.12-2.3-13.69-3.46V891.69q9.35,2.32,18.67,4.73,51.6,13.25,102.9,28,9,2.6,17.91,5.22v57.24q47.55,14,94.76,29.32V946.42q-16.45-34.62-33-69c-8-2.52-16.1-5-24.15-7.49l-1.11-.33q-101.38-31-204-55.88l-7.45-1.79c-8.63-2.09-17.3-4.14-25.93-6.15q-17.33,26.21-34.65,52.53V999.83q26,31.53,51.85,63.47,21.24,5.06,42.36,10.34,64.74,16.21,129,34.85c4.53,1.34,9.08,2.65,13.6,4v109.44q-9-2.62-17.91-5.21-53.14-15.37-106.64-29-9-2.29-18.05-4.56v-57.87q-47.92-12-96.11-22.65V1173s.05,0,.07.06q16.78,33,33.53,66,12.59,2.94,25.14,5.93l8.28,2q104.31,25.18,207.44,56.71,12.66,3.88,25.28,7.83c11.25-16.39,33.36-49.17,33.21-49.23.15-.12.52-96.82.52-145"></path>
  <path class="cls-1" d="M1100.3,735.13c-2.66.33-5.31.61-8,.92q-135.76,15.53-270.45,41.44v434.07q48.39-9.32,96.93-17.28v-151q86.54-14.23,173.52-24.17l8-.91q13.18-1.49,26.42-2.85,18.49-33.74,37-67.23v-156q-18.49-30-37-59.86c-8.81.92-17.63,1.89-26.42,2.85m-34.23,95.23V953q-11.07,1.35-22.16,2.76-62.66,8-125.11,18.29V829.39q62.43-10.26,125.11-18.25,11.07-1.44,22.16-2.81Z"></path>
  <path class="cls-1" d="M2144,1001q17.07-6.75,34.15-13.31V837.89q-30.46-36.06-61-71.59-141-24.64-283.39-37.93v434q48.91,4.59,97.7,10.48V1003.06q37.52,4.53,74.95,9.89,12.53,1.77,25,3.64,25,3.74,49.86,7.82v169.87c1.68.26,3.36.56,5.06.82q46,7.64,91.87,16.46V1027.08Q2161,1013.94,2144,1001m-85.49-48.75q-63.42-10-127.08-17.7V806.8q64.27,7.77,128.34,17.91c7.16,1.12,14.28,2.26,21.45,3.43v127.7q-11.34-1.86-22.71-3.64"></path>
  <path class="cls-1" d="M802.39,621.43q-20.5,3.81-41,7.86c-1.48.28-2.95.58-4.43.88V595.94c2-.39,4-.79,6.06-1.17q16.72-3.3,33.51-6.45c1.93-.37,3.89-.71,5.85-1.08v18.51q15.55-2.87,31.15-5.64V577.52c-3.63-5.7-7.25-11.33-10.88-17-2.65.49-5.29,1-7.94,1.43l-.36.07q-33.27,6.08-66.47,12.74c-.79.18-1.6.32-2.41.49l-8.4,1.68c-3.71,7.3-7.45,14.57-11.16,21.85v45.8q8.39,6.63,16.74,13.29,6.86-1.39,13.7-2.76,21-4.14,42-8.1l4.47-.81v35.41c-2,.36-3.93.72-5.85,1.1q-17.4,3.24-34.75,6.66c-2,.39-3.91.77-5.85,1.17V671.8q-15.52,3.08-31.05,6.3v22.8l0,0q5.39,8.33,10.81,16.69c2.7-.56,5.4-1.1,8.1-1.65.89-.18,1.78-.34,2.67-.54q33.77-6.78,67.59-12.95l8.31-1.5q5.55-10.71,11.1-21.36l-.18,0,.18-.2V632.62l-16.58-13.94-15,2.75"></path>
  <path class="cls-1" d="M910,545.82q-19.38,73.26-38.72,146.73c9.92-1.66,19.87-3.26,29.79-4.86Q905,671.33,909,654.92q22.86-3.58,45.67-6.89,4,15.22,7.93,30.42,16-2.25,32.1-4.4-19.41-67.65-38.81-135.11-23,3.31-45.85,6.88m4.86,84.35q8.52-35.11,17-70.19,8.42,32.52,16.83,65.08c-11.29,1.67-22.59,3.35-33.88,5.11"></path>
  <path class="cls-1" d="M1114.48,612.94q-24.68-44.22-49.32-88.12-16.46,1.88-33,3.94V669.21c9.31-1.12,18.6-2.26,27.9-3.33V571.61q24.42,44.32,48.87,88.91c11.17-1.15,22.31-2.22,33.46-3.29V516.76q-14,1.32-27.94,2.75Z"></path>
  <path class="cls-1" d="M1282.36,506.21q-19.5,71.32-39,142.89,15-1,30-1.91,4-16,8-32,23-1.33,46-2.35,4,15.58,8,31.2c10.78-.47,21.54-.87,32.31-1.26q-19.53-69.59-39.05-138.92-23.1,1.07-46.22,2.37m4.91,84.81q8.58-34.29,17.17-68.5,8.46,33.35,17,66.73-17.09.82-34.16,1.77"></path>
  <path class="cls-1" d="M1496.35,593.44q-24.76-46.71-49.52-93.06-16.61.21-33.17.59V641.45q14-.35,28-.54V546.64q24.57,46.77,49.1,93.84,16.8,0,33.56.07V500.08c-9.32-.07-18.68-.1-28-.07Z"></path>
  <path class="cls-1" d="M1570.43,525.89q19.23.35,38.47.9V642q15.75.43,31.49,1V527.81c12.83.48,25.62,1,38.46,1.6V504.17q-54.21-2.52-108.42-3.53Z"></path>
  <path class="cls-1" d="M1965.56,621.91q-24.6-49.74-49.27-99.17-16.51-1.8-33-3.46V659.73q14,1.41,27.91,2.93V568.4q24.46,49.77,48.89,99.88,16.65,2,33.36,4.19V532c-9.29-1.2-18.58-2.39-27.87-3.51Z"></path>
  <path class="cls-1" d="M2039.16,560c7.92,1.12,15.83,2.29,23.76,3.46v96.9q-11.9-1.75-23.76-3.46v21.8q39.37,5.58,78.71,12.06,0-10.9,0-21.78-11.86-2-23.73-3.83v-96.9q11.87,1.86,23.73,3.81c0-7.27,0-14.52,0-21.79q-39.3-6.45-78.71-12.06V560"></path>
  <path class="cls-1" d="M1825.35,513.88l-8.78-.74c-.08,0-.15,0-.18,0q-33.77-2.79-67.53-5c-1-.08-2.1-.13-3.16-.21l-8.83-.54c-4,6.65-8,13.33-12,20v98.94c4,7.17,8,14.34,12,21.49,3,.2,5.88.38,8.83.56,1.06.06,2.11.15,3.16.2q33.8,2.22,67.53,5l.18,0,8.78.74q6-9.89,12-19.72v-99q-6-10.9-12-21.8m-19.41,29.94v85.52c-2.72-.23-5.44-.46-8.17-.66-11.09-.88-22.18-1.68-33.29-2.46-2.73-.2-5.45-.38-8.17-.56V532l8.17.56q16.66,1.15,33.29,2.45c2.73.23,5.45.43,8.17.66Z"></path>
  <path class="cls-1" d="M2274.66,600.13q-5.92-11.62-11.88-23.2l-8.68-1.75a.78.78,0,0,0-.18,0q-33.28-6.72-66.72-12.82l-3.16-.56-8.72-1.6c-4,6.23-7.92,12.44-11.91,18.67v98.91c4,7.63,7.94,15.26,11.91,22.91,2.92.52,5.82,1,8.72,1.58,1.07.18,2.11.36,3.16.56q33.39,6.11,66.72,12.82c.08,0,.12,0,.18,0,2.9.58,5.82,1.17,8.68,1.78q6-9.2,11.88-18.34Zm-31,4.5v85.51c-2.7-.54-5.37-1.09-8.07-1.6q-16.44-3.24-32.92-6.29c-2.71-.53-5.37-1-8.08-1.52V587.08c2.71.49,5.41,1,8.08,1.5q16.48,3.09,32.92,6.31c2.7.54,5.37,1.05,8.07,1.6v8.14"></path>
  <polygon class="cls-2" points="1332.38 871.69 1218.06 1075.43 1237.19 1123.39 1308.37 1123.39 1275.97 1205.53 1215.32 1139.89 1222.42 1236.21 1117.32 1240.63 1200.9 1299.45 1141.39 1388.15 1237.53 1356.71 1277.1 1452.03 1307.28 1348.17 1414.5 1375.78 1345.29 1295.83 1430.45 1225.47 1342.54 1230.94 1437.68 1123.39 1562.84 1123.39 1701.48 877.76 1701.48 728.29 1623.71 728.29 1578.79 807.99 1570.96 871.69 1490.74 1014.5 1385.73 1014.5 1464.11 875.98 1464.11 728.29 1382.71 728.29 1339.66 807.23 1332.38 871.69"></polygon>
  <polygon class="cls-3" points="1671.29 749.71 1634.68 749.71 1606.88 799.41 1644.86 799.41 1671.29 749.71"></polygon>
  <polygon class="cls-3" points="1435.07 749.71 1395.64 749.76 1368.1 799.41 1409 799.36 1435.07 749.71"></polygon>
  <polygon class="cls-3" points="1360.85 1064.57 1279.41 1250.39 1242.69 1210.66 1246.39 1260.73 1191.74 1263.01 1235.22 1293.64 1204.23 1339.76 1254.24 1323.43 1274.82 1373.01 1290.5 1318.98 1346.26 1333.33 1310.29 1291.71 1354.6 1255.13 1292.43 1259.02 1288.13 1259.02 1416.83 1064.57 1528.32 1064.57 1626.96 887.51 1588.47 887.51 1505.32 1033.78 1305.85 1033.78 1388.97 887.51 1349.89 887.51 1249.53 1064.57 1360.85 1064.57"></polygon>
  <polygon class="cls-3" points="1398.69 819.43 1362.99 819.43 1358.39 861.92 1395.27 862.06 1398.69 819.43"></polygon>
  <polygon class="cls-3" points="1636.68 819.43 1600.96 819.43 1596.39 861.92 1633.24 862.06 1636.68 819.43"></polygon>
  <path class="cls-2" d="M1262.17,1305.88a16.13,16.13,0,0,0,16.31-16.28,16.36,16.36,0,1,0-16.31,16.28"></path>
</svg>
