<?xml version="1.0" encoding="utf-8"?>
<!-- Generator: Adobe Illustrator 19.2.1, SVG Export Plug-In . SVG Version: 6.00 Build 0)  -->
<svg version="1.1" id="Layer_1" xmlns="http://www.w3.org/2000/svg" xmlns:xlink="http://www.w3.org/1999/xlink" x="0px" y="0px"
	 viewBox="0 0 150 150" style="enable-background:new 0 0 150 150;" xml:space="preserve">
<style type="text/css">
	.st0{filter:url(#Adobe_OpacityMaskFilter);}
	.st1{fill:#FFFFFF;}
	.st2{mask:url(#mask-2);fill:#FEFEFE;}
	.st3{fill:#221F20;}
	.st4{fill:none;}
</style>
<title>TOR</title>
<desc>Created with Sketch.</desc>
<g id="Page-1_1_">
	<g id="TOR">
		<g id="Page-1">
			<g id="Group-3" transform="translate(25.000000, 25.087464)">
				<g id="Clip-2">
				</g>
				<defs>
					<filter id="Adobe_OpacityMaskFilter" filterUnits="userSpaceOnUse" x="0" y="0" width="100" height="99.5">
						<feColorMatrix  type="matrix" values="1 0 0 0 0  0 1 0 0 0  0 0 1 0 0  0 0 0 1 0"/>
					</filter>
				</defs>
				<mask maskUnits="userSpaceOnUse" x="0" y="0" width="100" height="99.5" id="mask-2">
					<g class="st0">
						<polygon id="path-1" class="st1" points="0,0 0,99.5 100,99.5 100,0 						"/>
					</g>
				</mask>
				<path id="Fill-1" class="st2" d="M99.6,43.9C99.6,43.9,99.6,43.9,99.6,43.9c0-0.2-0.4-3-0.7-4.5c-0.1-0.5-0.3-0.9-0.6-1.4
					c0.1-0.1,0.1-0.3,0.1-0.5l-0.2-1.4c-0.1-0.4-0.4-1.3-0.4-1.3l-0.7-2l-4.2-9.1l-4-5.6l-1.1-1.3c-0.2-0.2-0.4-0.3-0.6-0.3h0
					l-0.3,0c-0.1-0.2-0.2-0.5-0.4-0.8l-1.3-1.8L81,10.6c0,0-0.1,0-0.1-0.1c-0.1-0.1-0.3-0.2-0.4-0.4L79,9l-5.5-3.3l-4.3-2
					c-0.9-0.3-1.6-0.6-2.1-0.8c-0.1,0-0.1-0.1-0.2-0.1c-0.5-0.2-0.7-0.3-0.9-0.3c-0.2,0-1-0.3-1.7-0.6c-0.6-0.2-1-0.4-1.1-0.4
					l-4-0.9l-0.7-0.1l-0.9,0.1c-0.2,0-0.4,0.1-0.5,0.3l-0.7,0.8l-1.1-0.4l-3.8-0.8l-0.2,0l-1.5-0.3L46.6,0l-4.4,0.3l-4.1,0.8l-0.3,0
					c-0.1,0-0.2,0-0.3,0.1l-8.7,3.4L22.5,8l-5,3.8c-0.9,0.7-1.3,1.2-1.5,2l-0.6,2.7c-0.1,0.3,0,0.6,0.2,0.8c0.2,0.2,0.5,0.3,0.8,0.2
					l3.3-1l0.4-0.1l0.1,0c0.1,0,0.2,0,0.3-0.1l3.1-1.2c0,0,0.4-0.1,0.5-0.2c0.3-0.1,0.6-0.2,1-0.3l5.6-2c0.9,0,1.4,0,1.8,0l0,0
					l4.6,0.4c0.1,0,0.1,0,0.2,0l1.9,0.1l3,2.6c0.2,0.2,0.6,0.2,0.9,0.1l0.5-0.2l1.3,0l0.4,0l3.3,0.2l1.7,1l0.6,0.3
					c0.1,0,0.1,0,0.2,0.1l1.1,0.5l-4,0.2c-0.1-0.1-0.2-0.1-0.4-0.1L43.9,18l-0.2-0.2c-0.3-0.2-0.6-0.3-0.9-0.1l-5.2,3l-1.4-0.1
					l-3.7,0.1l-0.9-0.1l-0.8-0.4c-0.3-0.2-0.6-0.1-0.9,0.1l-5.2,4.1l-1-0.4c-0.1,0-0.3,0-0.4,0L23,23.8c-0.1,0-0.3,0-0.4,0L21.9,24
					c-1,0.3-1.8,0.4-2.3,0.6l-1.6-0.3l-0.9-0.7c-0.3-0.3-0.8-0.2-1.1,0.1l-0.9,0.9l-1.2,0.8L2.8,33.8c-0.2,0.1-0.3,0.3-0.3,0.6
					l0,0.5L1.7,37l-1.5,9.8L0,53.7l0.3,1.9c0.1,1,0.6,1.6,0.9,1.9l0.4,0.4c0.2,0.1,0.4,0.2,0.6,0.2l1.4,0C3.7,58,3.9,58,4.1,57.9
					l7.9-8.1l1.7-0.7l2.4-0.1c0.2,0,0.4-0.1,0.6-0.3l1.3-1.5l3.5-0.4l0.9,0.3c0.3,0.1,0.7,0,0.9-0.3l0.7-0.9l2.5-1.8l2.7,0l3.1,0.3
					c0.1,0,0.2,0,0.2,0l2.2-0.4c0.2,0,0.3-0.1,0.4-0.2l2.4-2.4c0,0,0.1-0.1,0.1-0.1l2-1.9l1.8-0.2l1.2,0.6l1.1,0.4
					c0.3,0.1,0.6,0,0.8-0.2l0.3-0.2l1.3-0.2l1.9,1.4c0.3,0.3,0.8,0.2,1.1-0.1l0.3-0.4l2.1-0.1l0.5-0.1l1.4,0.1l0.3,0.1
					c0.2,0.1,0.4,0.1,0.6,0l1.6-0.6c0.1,0,0.2,0,0.3-0.1l5.8-2.5l2,0.9l-0.2,0.1c-0.2,0-0.3,0.1-0.5,0.2l-1.4,1.3L59,40.1
					c-0.1,0-0.3,0.1-0.4,0.2l-2.8,2.2c-0.1,0-0.2,0-0.4,0.1l-1.6,1l-0.6,0.1c-0.2,0-0.3,0.1-0.4,0.2l-0.1,0.1l-3.3-0.2
					c-0.2,0-0.5,0.1-0.7,0.3l-6.8,7.8l-2.9,0.5l-1.1,0c-0.3,0-0.6,0.2-0.7,0.5L36.9,53l-3.4,1.9l-1.7-0.2c-0.1,0-0.2,0-0.4,0
					l-0.3,0.1l-2.4-0.1c-0.2,0-0.5,0.1-0.6,0.3l-2.1,2.3l-0.1,0l-0.9,0c-0.1,0-0.2,0-0.4,0.1l-0.5,0.2l-2.2-0.2
					c-0.3,0-0.5,0.1-0.7,0.3c-0.2,0.2-0.2,0.5-0.2,0.7l0.2,0.7l-5.8,4.4l-0.7,0.8c-0.2,0.2-0.2,0.4-0.2,0.7l0,0.3l-1.8,4.4l-3,0.3
					c-0.2,0-0.3,0.1-0.5,0.2l-2.1,1.8C7.1,72,7,72.1,7,72.3l-0.5,1.7c-0.1,0.2,0,0.5,0.1,0.7l3.8,5.4l1.3,1.7l1.6,1.8
					c0.2,0.4,0.6,0.8,1.1,1c0.2,0.1,0.3,0.1,0.5,0.2c0.1,0,0.1,0,0.2,0l1,0.3c0,0,0.1,0,0.1,0c0,0,0.1,0,0.1,0
					c0.1,0.4,0.4,0.6,0.8,0.6h1l1.8,0.7l1.6,0.9c0.2,0.1,0.5,0.1,0.8,0l1.2-0.7c0.1,0,0.2-0.1,0.3-0.1l0,0l3.1,0.8
					c0.2,0.1,0.4,0,0.6-0.1l2.8-1.4l6.2-0.6c0.3,0,0.5-0.2,0.6-0.4l2.7-4.3l0.9-0.8l0.9-0.8l1.9-1.9c0.4-0.2,0.7-0.6,1.3-1.2
					l1.3-0.3c0.2,0,0.4-0.2,0.5-0.4c0.1-0.2,0.2-0.4,0.1-0.6l-0.5-1.7l0.1-0.5l1.6-0.6c0.3-0.1,0.5-0.4,0.5-0.7l0-0.6l2-3.3l0.2-0.1
					c0.1,0,0.2-0.1,0.3-0.1l6.4-3.1l1.2-0.4c0.3-0.1,0.5-0.3,0.5-0.5l0.5-1.5l1.7-0.3c0.1,0,0.2-0.1,0.3-0.1l1.1-0.7l0.5,0l0.9,0.6
					c0.1,0.1,0.3,0.1,0.4,0.1l-1.3,0.9c-0.2,0-0.4,0.1-0.5,0.2l-1.6,1.3c-0.1,0.1-0.2,0.3-0.3,0.4l-0.4,1.8l-0.3,0.3
					c-0.1,0.1-0.2,0.2-0.2,0.4l-1.9,7l-0.6,0.3h-1.2c-0.4,0-0.7,0.2-0.8,0.6l-1.5,5.7l-0.1,0.6c0,0.1,0,0.2,0,0.3l-0.1,0.8L53.3,82
					c-0.1,0.1-0.1,0.2-0.1,0.3l-2.8,4.2l-1.8,2.6c-0.4,0.2-1,0.6-2,1.2l-1.3,1.1c-0.3,0.3-0.4,0.7-0.2,1.1l0,0.1l-3.2,1.9
					c-0.1,0.1-0.2,0.2-0.3,0.3l-0.7,1.2c-0.1,0.1-0.1,0.3-0.1,0.4v0.5c0,2.2,2.1,2.5,3.2,2.6l5.7,0.3l4.7-0.5l2.3-0.4l3.4-1l2.2-0.9
					l0.9-0.5c0.1,0,0.5-0.3,1-0.5l0.3,0.4c0.2,0.2,0.4,0.4,0.7,0.3l0.9,0c0.4,0,1.1-0.1,1.2-0.2l2.4-0.9c2.1-1,3-1.4,3.5-1.7
					c0.1,0,0.1-0.1,0.2-0.1l8.5-5.7l4.7-4.5l1.7-1.9l4-5.5l4.4-8.7l1.9-6.6c0.2-0.6,0.2-1.1,0.1-1.6c0.2-0.1,0.4-0.4,0.4-0.6
					l0.8-7.8l0-2.9L99.6,43.9z"/>
			</g>
			<path id="Fill-4" class="st3" d="M91,118.9c0.1,0.1,0.1,0.2,0.2,0.2c0.2,0,0.7-0.1,0.7-0.1l0.5-0.2l1.4-0.5c0,0,3.5-1.6,3.5-1.7
				c0,0,0.6-0.3,0.6-0.3l0.3-0.1l0.4-0.3l0.6-0.4l0.7-0.4l0.9-0.6l1.6-1.2l0.8-0.6l1.1-0.8l1-0.8l0.5-0.4l0.7-0.6l0.7-0.7l1.2-1.2
				l1.3-1.3l1.6-1.8l0.9-1.1l0.3-0.4l0.9-1.1l1.8-2.6l0.5-0.8l1.2-2.4l0.7-1.3l1.2-2.3l0.6-1.4l0.7-2.2c0,0,0.8-2.9,1.2-4.4
				c0.1-0.2,0.1-0.3,0-0.5c-0.2-0.3-0.4-0.8-0.7-1.2c-0.1-0.2-0.3-0.4-0.4-0.6c-0.1-0.2-0.4-0.6-0.5-0.7c-0.1-0.1-0.3-0.3-0.4-0.4
				c-0.4-0.3-0.7-0.7-1-0.9c-0.2-0.1-0.3-0.2-0.4-0.3c-1-0.7-2-1.3-3.1-1.8c-0.5-0.2-0.9-0.4-1.4-0.5c-0.3-0.1-0.9-0.2-1.2-0.3
				c-0.2,0-0.4,0-0.5,0.1c-0.2,0.1-0.2,0.3-0.2,0.6c-0.1,0.6-0.1,1.3-0.1,1.9c-0.1,0.6-0.1,1.2-0.1,1.9c0,0.6-0.1,1.1-0.1,1.7
				c-0.1,0.7-0.2,1.5-0.3,2.2c-0.3,1.4-0.6,2.7-0.8,4.1c-0.1,0.4-0.1,0.8-0.3,1.1c-0.2,0.6-0.4,1.2-0.5,1.8
				c-0.3,1.3-0.7,2.5-1.2,3.8c-0.4,1-0.7,2-1.3,2.9c0,0.1-0.1,0.1-0.1,0.2c-0.3,0.6-0.5,1.3-0.8,1.9c-0.2,0.4-0.4,0.8-0.6,1.2
				c-0.2,0.5-0.5,1-0.8,1.5c-0.5,0.7-1,1.5-1.4,2.2c-0.3,0.6-0.6,1.1-1,1.6c-0.1,0.1-0.2,0.3-0.3,0.4c-0.3,0.4-0.5,0.9-0.9,1.3
				c-0.6,0.8-1.2,1.5-1.9,2.3c-0.4,0.5-0.8,0.9-1.3,1.3c-0.4,0.4-0.8,0.8-1.1,1.2c-0.1,0.1-0.2,0.2-0.3,0.2
				c-0.2,0.2-0.5,0.4-0.7,0.6c-0.5,0.5-1,1-1.6,1.4c-0.2,0.2-0.5,0.3-0.7,0.5C92.5,118.1,91.8,118.5,91,118.9"/>
			<path id="Fill-6" class="st3" d="M121.9,81.9C121.9,81.9,122,81.9,121.9,81.9c0.1-0.2,0.1-0.4,0.1-0.4l0.3-3l0.2-2.8l0-2.8l0-0.4
				l-0.3-3.2c0,0-0.4-2.9-0.7-4.3c-0.1-0.5-0.4-0.8-0.9-1c-0.1-0.1-0.3-0.1-0.5-0.2c-0.3-0.1-0.7-0.3-1-0.3
				c-0.7-0.2-1.4-0.4-2.1-0.5c-0.9-0.1-1.7-0.2-2.6-0.3c-0.7-0.1-1.4-0.1-2.1-0.1c-0.6,0-0.9,0-1.5,0c-0.3,0-0.6,0-0.8,0.2
				c-0.1,0.2,0,0.5,0,0.9c0.1,0.7,0.2,1,0.3,1.7c0.3,2,0.7,4.1,0.8,6.1c0,0.9,0.1,1.9,0.1,2.8c0,0.3,0,0.4,0,0.7
				c0,0.2,0,0.3,0.1,0.5c0.1,0.1,0.2,0.1,0.4,0.2c0.2,0.1,0.4,0.1,0.5,0.1c0.2,0,0.5,0.1,0.7,0.2c0.8,0.3,1.7,0.6,2.5,0.9
				c0.6,0.2,1.1,0.6,1.6,0.8c0.1,0,0.1,0.1,0.2,0.1c0.3,0.2,0.6,0.5,1,0.7c0.7,0.6,1.5,1.1,2.1,1.8c0.1,0.1,0.2,0.3,0.4,0.4
				c0.2,0.2,0.6,0.9,0.9,1.2C121.9,81.9,121.9,81.9,121.9,81.9"/>
			<path id="Fill-8" class="st3" d="M100.7,48.1c0.3,0,0.5,0,0.8,0c0.2,0,0.3,0,0.4-0.2c0.1-0.2-0.1-0.3-0.1-0.4
				c-0.1-0.1-0.6-1.1-0.6-1.1l-0.5-0.8l-2.2-3.2l-0.5-0.5l-0.4-0.6l-0.7-0.8l-1.8-2l-0.8-0.8L91.4,35l-2.3-1.8l-0.8-0.4l-2.7-1.6
				l-1.9-1L83.3,30l-1.5-0.6l-2.3-0.9l-0.2,0l-0.7-0.2l-0.2,0l-0.6-0.2l-1.4-0.2l-0.6,0l-1.2-0.2l-1.5-0.1l-0.5-0.1l-0.9,0l-1.5,0
				l-1.5,0.2l-1.2,0l-1,0.1l-1.1,0.2l-0.8,0.2l-1.3,0.2l-0.3,0L61.8,29l-0.7,0.2l-0.4,0.3l-1.1,0.3l-0.5,0.3l-0.6,0.2L56.9,31
				l-2,0.8L54.2,32l-1.4,0.8l-1.2,0.8l-1.1,0.6l-0.4,0.2l-1.2,0.7l-0.2,0.1l-1.4,1.1l-1.2,0.8l-0.2,0.2l-1.3,1L44,38.7
				c0,0-0.7,0.6-0.7,0.7l0.5-0.1c0,0,0.9-0.3,0.9-0.3c0,0,0.2,0,0.2,0l1.3-0.5h0.2l1.4-0.6c0,0,0.7-0.3,0.7-0.2s0.8-0.3,0.8-0.3
				l1.1-0.4l2.6-1l0.2,0l1.3-0.5l1-0.4l0.1,0.1c0,0,2,0,2,0l1.3,0.1l0,0l2.6,0.2l0,0l3.6,0.2l0,0.1l1.3,1.1l0.1,0l1.3,1.3l0.1-0.1
				l1.8,0L70,38l4.5,0.3l0,0.1l2,1.2l0.1,0l3.5,1.7l0,0.2l2-0.8l2.9,1l0.5,0.8l1.1,0.1l1,1.2l0.1,0l0.8,0.9l0,0.1h0.1l2.3,0.5
				l0.9,1.3l2.1,0.8c0,0,2.3,0.6,3.5,0.7C98.6,48.2,99.9,48.2,100.7,48.1"/>
			<path id="Fill-10" class="st3" d="M120.7,61.7c-0.1-0.3-0.3-1-0.3-1l-0.1-0.4l-0.1-0.5l-0.4-1.1l-0.4-1l-1.1-2.4l-0.5-1.2
				l-0.6-1.4l-0.8-1.2l-0.2-0.4l-0.5-1l-0.5-0.8l-0.2-0.3l-3.2-4.3c0,0-0.3-0.4-0.5-0.5c-0.1-0.1-0.1-0.2-0.2-0.2c0,0,0,0,0,0
				c0,0-1,1.6-1.4,2.1c-0.4,0.5-1.2,1.2-1.2,1.2s-0.7,0.6-0.8,0.7c-0.1,0.1-0.6,0.4-0.6,0.4l-0.7,0.4c0,0-0.6,0.3-0.6,0.3
				c-0.1,0-0.2,0.1-0.3,0.1c-0.1,0.1-0.1,0.1,0,0.2c0,0.1,0,0.2,0.1,0.3c0.3,0.6,0.6,1.3,0.9,1.9c0.5,0.9,0.8,1.9,1.2,2.8
				c0.1,0.3,0.3,0.6,0.4,0.9c0.3,0.8,0.5,1.7,0.8,2.5c0.1,0.4,0.2,0.7,0.3,1.1c0.1,0.4,0.2,0.7,0.3,1.1c0.1,0.3,0.2,0.4,0.5,0.4
				c0.2,0,0.5,0,0.7,0c0.9,0,1.7-0.1,2.6-0.1c0.2,0,2,0.2,2,0.2s0.6,0.1,0.9,0.1c0.6,0.1,1.3,0.3,2,0.4c0.5,0.1,1.1,0.3,1.6,0.5
				c0.2,0.1,0.5,0.2,0.8,0.3c0.1,0,0.2,0,0.2,0C120.7,61.8,120.7,61.7,120.7,61.7"/>
			<path id="Fill-12" class="st3" d="M109.5,42.6c0-0.1-0.3-0.5-0.3-0.5l-0.2-0.3l-0.5-0.5l-0.3-0.5l-0.6-0.6c0,0-0.1-0.1-0.2-0.2
				c-1-0.8-3.1-2.5-3.1-2.5c0,0-0.6-0.4-0.6-0.4l-1.1-0.9L97.5,33l-4.2-2c0,0-2.2-0.9-2.2-0.9c0,0-0.8-0.3-0.8-0.3
				c0,0-2.7-0.9-2.7-0.9l-1.9-0.5L83.7,28l-0.3,0l-0.2,0.2l0.1,0.1c0,0,0.2,0.1,0.3,0.1c0.6,0.2,1.2,0.4,1.8,0.7
				c0.4,0.2,0.7,0.4,1.1,0.5c0.3,0.1,0.5,0.2,0.8,0.3c0.9,0.5,1.8,1,2.7,1.6c0.5,0.3,1,0.7,1.5,1.1c0.3,0.3,0.7,0.6,1.1,0.8
				c0.2,0.1,0.3,0.3,0.5,0.4c0.1,0.1,0.2,0.2,0.3,0.2c0.5,0.4,1.1,0.8,1.5,1.3c0.5,0.5,1,1,1.5,1.5c0.5,0.5,1,1,1.4,1.5
				c0.3,0.5,0.7,0.9,1.1,1.3c0.8,0.8,1.4,1.7,2.1,2.5c0.1,0.1,0.1,0.2,0.2,0.3c0.5,0.7,0.9,1.5,1.4,2.1c0.4,0.5,0.7,0.9,1,1.5
				c0.2,0.3,0.4,0.6,0.6,0.9c0.1,0.2,0.3,0.3,0.4,0.3c0.1,0,0.3-0.1,0.3-0.1l0.4-0.2c0,0,0.5-0.2,0.7-0.3c0.2-0.1,0.5-0.3,0.6-0.4
				c0.1-0.1,0.6-0.5,0.9-0.7c0.3-0.3,0.8-0.9,0.8-0.9l0.4-0.6l0.7-1.2C109.3,42.9,109.5,42.7,109.5,42.6"/>
			<path id="Fill-14" class="st3" d="M107.2,60.2c-0.3-0.9-0.5-1.7-0.8-2.6c-0.3-0.7-0.5-1.4-0.8-2.1c-0.2-0.4-0.3-0.9-0.5-1.3
				c-0.1-0.2-0.2-0.4-0.3-0.6c-0.4-1.1-0.9-2-1.5-3.1c0-0.1-0.1-0.1-0.1-0.2c-0.1-0.1-0.1-0.2-0.2-0.3c-0.1-0.1-0.2,0-0.5,0
				c-0.5,0.1-1,0.1-1.3,0.1c-0.2,0-1.1,0.1-1.8,0.1l-0.2,0h-0.4h-0.4L96.2,50c-0.8-0.1-2.8-0.6-2.8-0.6L92,48.9l-1.7-0.6l-0.1,0.1
				l-2.7-0.2l-0.1,0L85.9,47l-0.2,0l-0.9-0.9l0-0.2l-1.1-0.2l-0.1,0l-0.9-0.3l-0.1-0.1l-2,0.1l-1.8-0.7l-6.2,0.3l-0.1-0.1l-1.2,0.1
				l-0.1,0.1l-3.1,0.2L68,45.5L63.6,48l-0.1,0.2l-0.2,0.2l-0.1-0.1l-2.2-0.2l-0.1,0.1l-3.9,0l-0.1,0l-1.1,0l-0.3-0.2l-4.1,3.2l0,0.1
				L50,52.3l-1.6-0.8l-0.1,0l-0.6-0.2c0,0-2.9,0.7-2.9,0.8c0,0-2.7-0.4-2.7-0.4l-0.2-0.2l-0.5,0.5l-1.1,0.5l0,0.1L38,54.4l-3.1,2.2
				l-3.5,2.6l-1.6,1.2l-0.1,0.7l-0.7,1.5l-0.3,1.3l-0.4,2.7l-0.3,1.2L28,69.1L27.6,72l-0.2,6.3l0.2,0.4l0.1,1.7c0,0,0,0.3,0.1,0.3
				c0,0,0,0,0,0l7.8-8l2.5-1l2.1-0.1l1.3-1.5l0.1-0.3l0.2,0.1l3.5-0.4l0.1-0.1h1.3l0.2,0.1l0.4-0.6l1.6-1l1.7-1.1l4.7,0.1l0,0.1
				l1.8,0.2l1.4-0.3l2.6-2.7l0.1,0l2.1-2l3.1-0.4l0.1-0.1l0.1,0.1l1.6,0.8l0.1-0.1l1.4-0.2l0.1-0.1l1.4-0.2l0.1-0.1l1.5,1.3l0.1-0.1
				l3-0.1l0.3-0.2l2.4,0.1l0.1,0l0.4-0.1l0.1-0.1l1-0.4l0.1,0l1.1-0.5l0.1-0.1l1.2-0.5l0.1-0.1l3.3-1.3l0,0l0.6-0.2l0.1-0.1l0.2,0.2
				l1,0.5l0.3,0l1.1,0.6l0.1-0.1l0.3-0.2l0,0l0.5-0.2l0,0l0.8-0.2l2,0.5l0.4-0.1l0.4,0.2l1.5,0.2l1.4,0.5c0,0,0.8-0.1,0.8-0.1
				c0,0,0.3,0.2,0.3,0.2l0.2-0.1c0,0,2.8-0.4,4.2-0.5c0.9-0.1,1.8-0.2,2.7-0.3c0.5-0.1,1-0.1,1.6-0.2
				C107.2,60.7,107.3,60.6,107.2,60.2"/>
			<path id="Fill-16" class="st3" d="M109.3,74.6c0-0.2,0-0.3,0-0.5c0-0.5-0.1-1.1-0.1-1.6c0-0.2,0-0.4,0-0.5c0-0.7-0.1-1.3-0.1-2
				c-0.1-0.9-0.2-1.7-0.3-2.5c-0.1-0.7-0.2-1.3-0.3-2c-0.1-0.7-0.2-1.3-0.4-2c-0.1-0.7-0.3-0.8-1-0.7c-0.1,0-0.1,0-0.2,0
				c-0.3,0.1-0.6,0.1-0.9,0.1c-1.4,0.2-2.7,0.2-4.1,0.4l-4,1.4l-5.7-0.2l-0.6-0.2l0,0.1l-1.7,1.2l-0.2,0l-1.3,1.2l-0.1,0.2l-3.4,0.5
				L81.6,70l-0.3,0l-1.7,1L79,71l-0.7,0.6l-0.2-0.1l-3.2-0.2l-0.6,0.6l0,0.1l-2.8,3l0,0.2l-0.1,0l-3.5,4l-1,0L67,79.3l-2.9,0.5
				l-0.2,0c0,0-0.1,0.1-0.1,0.1c0,0-4.8,2.6-4.8,2.6l-2.1-0.2l-0.5,0.2l-2.1-0.1l-2.1,2.3L51,84.8l-0.7,0l-0.7,0.3l-0.4,0l0,0.1
				l-2.6,2l-0.2,0l-4.1,3.2l0,0.2l-2.5,6.1l0.1,0.3l-4.2,0.4l-1.4,1.2L34,99l1.9,2.6l1.4,2.1l1.2,1.5l1.9,2.1c0,0,0,0.1,0.1,0.2
				c0,0,0.3,0,0.3,0c0,0,1.2,0.4,1.2,0.4c0,0,1.4,0.4,1.4,0.4s0,0.1,0,0.1c0,0,0.1,0,0.1,0l2.4,0.9l0.2,0l0.1,0.2h0.2
				c0,0,0.6,0.4,0.6,0.4l1-0.5l0,0l0.4-0.3l3.6,0.9l2.6-1.3l5.8-0.6l2.4-3.8c0.4-0.4,1.1-1.1,1.1-1.1l0.1,0c0,0,0.8-0.8,0.8-0.8
				c0,0,0-0.1,0-0.1l1.5-1.4L67,100c0,0,0.2-0.1,0.2-0.1c0,0,0.8-0.8,0.8-0.8l0.7-0.7l0.2,0l-0.2-0.6l0.7-2.5l1.3-0.4l0,0l0.4-0.1
				l0-0.2l1.8-2.8l0.2-0.1l0.7-1.4l1.2-0.7l0.2-0.2l0.2,0c0,0,0.7-0.4,0.7-0.4h0.1l1.3-0.6l0.1-0.2l4.3-2l0.3,0l0.1-0.2l0.2-0.1
				l0.4-1.5l1.3-0.6l1.6-0.2l1.4-1l2,0.1l0.2,0.2l0.1-0.1l2.8-1.3l0-0.4l0.7-1.3l1.4-0.4l0.1-0.1l1.9-0.4l0.7-0.9l0.1,0
				c0,0,0.4-0.4,0.5-0.4c0,0,1.3,0.2,1.3,0.2l0.1,0l0.7,0.1l0.4,0.1c0,0,1.9-0.9,2.7-1.2c0.3-0.1,0.7-0.2,1-0.3
				c0.4-0.2,0.9-0.3,1.3-0.5c0.2-0.1,0.4-0.1,0.7-0.2l0.9-0.2l1-0.2l0.6,0c0,0,0.3,0,0.4-0.1c0.1,0,0.3,0,0.4-0.1
				c0.1-0.1,0.1-0.3,0.1-0.4C109.3,74.9,109.3,74.8,109.3,74.6"/>
			<path id="Fill-18" class="st3" d="M109.2,78.4c0-0.1,0-0.4-0.1-0.5c-0.1-0.1-0.3-0.2-0.4-0.2c-0.1,0-0.6,0.1-0.6,0.1l-0.8,0.1
				c-0.1,0-0.2,0-0.3,0.1c-0.5,0.1-1,0.2-1.5,0.4c-0.5,0.2-1.1,0.3-1.6,0.5c-0.5,0.2-1.2,0.4-1.7,0.7c-0.2,0.1-2,1-2.9,1.4l-1.1,1.1
				l0,0.2l-0.1-0.1l-0.7,0l0,0.1l-2.2,0.7l0,0.2L95,83.5l0,0.1l-1,1.8l-0.1,0l0,0.2c0,0-0.2,0.3-0.4,0.7l-4.6,3l-0.1,0L88,89.9
				l-0.5,1.9l-0.4,0.4l-1.8,6.6l0.2,0.8l-2.7,1.3h-0.4l-0.5,2.3l-0.1,0.1l-0.7,2.1l0,0.1l-0.3,1.8l-0.1,0.1l0.1,0.2l-2.6,4l-0.2,0.1
				l-0.6,1l0,0.2c0,0-2.2,3.1-2.2,3.1c0,0-2.3,1.4-2.3,1.4l0.1,0.2c0,0-0.1,0.9-0.1,0.9l0.2,0.3l-0.3,0.1l-1.7,1l-0.2,0l-2.4,1.4
				l-0.3,0.5c0,0,1,0.1,1,0.1l1.6,0.1l1.1,0.1l1.3,0l0.6,0l0.9,0l0.9,0l3.4-0.4l2-0.4l1.5-0.4l1.7-0.5l2.1-0.8l0.2-0.1l0.6-0.3
				c0,0,1.7-0.9,2.5-1.5c1.3-1,2.7-2,3.9-3.1c0.4-0.4,0.8-0.8,1.2-1.2c0.4-0.4,0.8-0.8,1.2-1.2c0.1-0.1,0.2-0.1,0.2-0.2
				c0.1-0.3,0.4-0.5,0.6-0.8c0.2-0.2,0.3-0.3,0.5-0.5c0.3-0.4,0.6-0.7,1-1.1c0.3-0.3,0.5-0.6,0.7-0.9c0.4-0.6,0.8-1.2,1.2-1.8
				c0.5-0.8,1.1-1.5,1.5-2.3c0.5-0.9,0.9-1.8,1.4-2.6c0.4-0.7,0.8-1.5,1.2-2.2c0.5-1.3,1.1-2.6,1.6-3.9c0.5-1.4,0.9-2.8,1.3-4.2
				c0.3-1.1,0.4-2.2,0.8-3.2c0.1-0.1,0.1-0.3,0.1-0.4c0.2-0.9,0.3-1.7,0.4-2.6c0.1-0.8,0.2-1.6,0.4-2.5c0.1-0.6,0.2-1.1,0.2-1.7
				c0.1-0.8,0.1-1.6,0.1-2.3c0-0.1,0-0.3,0-0.3S109.2,78.5,109.2,78.4"/>
			<rect id="Rectangle" y="0" class="st4" width="150" height="150"/>
		</g>
	</g>
</g>
</svg>
