<?xml version="1.0" encoding="UTF-8"?>
<svg xmlns="http://www.w3.org/2000/svg" xmlns:xlink="http://www.w3.org/1999/xlink" version="1.1" id="Layer_1" x="0px" y="0px" viewBox="0 0 150 150" style="enable-background:new 0 0 150 150;" xml:space="preserve">
<style type="text/css">
	.st0{fill:#FFFFFF;}
</style>
<g>
	<g>
		<path class="st0" d="M133.5,35.3l-11.4,24.6H76.3l-14.4,31H48.9c0.1-1.5,0.4-3.1,0.9-4.6c1.2-3.7,3.6-6.8,6.5-9    c0.8,0.9,1.5,1.8,2.1,2.8c0.1,0.2,0.3,0.1,0.4,0c0,0,0,0,0,0l20.9-44.7H133.5z"></path>
	</g>
	<g>
		<path class="st0" d="M27.4,100.4c-1.3,2.6-3.2,4.8-5.4,6.5c-1.9-2.2-3.4-4.8-4.4-7.7c-0.7-2-1-3.9-1.1-5.9h12.9    C29.2,95.7,28.5,98.1,27.4,100.4z"></path>
		<path class="st0" d="M37.8,93.3v21.4c-5.3-0.3-10.3-2.4-14.1-6c2.5-1.9,4.5-4.4,5.9-7.2c1.3-2.6,2-5.4,2.2-8.2H37.8z"></path>
		<path class="st0" d="M28.4,86.2c0.5,1.5,0.8,3.1,0.9,4.6H16.5c0.3-5,2.2-9.8,5.5-13.6C24.9,79.4,27.2,82.5,28.4,86.2z"></path>
		<path class="st0" d="M37.8,69.4v21.4h-6c-0.1-1.8-0.5-3.6-1-5.4c-1.4-4.1-3.9-7.5-7.1-10c2.3-2.1,5.1-3.8,8.2-4.9    C33.9,69.9,35.9,69.5,37.8,69.4z"></path>
		<path class="st0" d="M46.3,90.8h-6V69.4c5.3,0.3,10.3,2.4,14.1,6c-3.3,2.5-5.8,6-7.1,10.1C46.8,87.2,46.4,89,46.3,90.8z"></path>
		<path class="st0" d="M54.5,108.8c-2.3,2.1-5.1,3.8-8.2,4.8c-2,0.7-4,1-5.9,1.1V93.3h5.9c0.2,2.8,0.9,5.6,2.2,8.2    C50,104.4,52,106.9,54.5,108.8z"></path>
		<path class="st0" d="M61.8,93.3c-0.3,5-2.2,9.9-5.5,13.6c-2.3-1.7-4.2-3.9-5.5-6.6c-1.1-2.2-1.8-4.6-1.9-7.1H61.8z"></path>
	</g>
</g>
</svg>
