<?xml version="1.0" encoding="UTF-8"?>
<svg xmlns="http://www.w3.org/2000/svg" viewBox="0 0 118.45 118.46">
  <defs>
    <style>.d{fill:#002b5c;}.e{fill:#fff;}.f{fill:#c4ced4;}.g{fill:#e31937;}</style>
  </defs>
  <g id="a"></g>
  <g id="b">
    <g id="c">
      <g>
        <path class="e" d="M59.33,1.32h-.1C27.29,1.32,1.37,27.19,1.32,59.14v.1c0,31.95,25.88,57.87,57.84,57.9h.08c31.95,0,57.86-25.89,57.89-57.84v-.07c0-31.94-25.87-57.85-57.81-57.91"></path>
        <path class="f" d="M118.45,59.1C118.38,26.44,91.88,0,59.23,0h-.13C26.44,.07,.01,26.57,0,59.2v.1c.04,32.68,26.53,59.14,59.21,59.16h.08c32.68-.04,59.14-26.53,59.16-59.19,0-.03,0-.05,0-.08,0,0,0-.02,0-.09m-1.31,.17v.03c-.04,31.96-25.94,57.83-57.89,57.84h-.08c-31.96-.03-57.84-25.95-57.84-57.9v-.1C1.37,27.19,27.29,1.32,59.23,1.32h.1c31.94,.06,57.8,25.97,57.81,57.91v.04Z"></path>
        <path class="d" d="M39.87,46.08c6.02-6.01,8.55-13.04,8.55-13.04l1.34-4.89,.32-1.14-6.16-3.45s-3.6-2.5-11.63,2.17c-9.41,5.55-17.07,12.73-21.03,20.34-2.19,4.22-3.94,9.08-4.84,14.6,.28,10.45,3.58,20.15,9.08,28.24-1.57-15.06,12.99-31.56,24.38-42.83"></path>
        <path class="d" d="M86.26,25.73c-8.04-4.66-11.63-2.17-11.63-2.17l-6.16,3.45,.32,1.14,1.34,4.88s2.53,7.03,8.55,13.04c11.36,11.23,25.86,27.67,24.4,42.69,5.52-8.18,8.8-18,8.99-28.57-.92-5.33-2.63-10.03-4.77-14.13-3.96-7.61-11.62-14.79-21.03-20.34"></path>
        <path class="g" d="M66.92,16.7c21.12,2.39,35,14.38,42.17,25.01-5.39-15.34-17.67-27.44-33.12-32.6-3.41,1.01-7.19,3.13-9.05,7.6"></path>
        <path class="g" d="M51.62,16.7c-1.87-4.5-5.68-6.61-9.11-7.61C26.96,14.27,14.63,26.48,9.28,41.96c7.12-10.7,21.05-22.86,42.34-25.26"></path>
        <path class="g" d="M55.08,16.1l4.19-6.17,4.2,6.17c1.68-4.6,4.34-7.14,7-8.52-3.6-.78-7.34-1.2-11.18-1.2-3.86,0-7.61,.42-11.23,1.2,2.67,1.38,5.33,3.91,7.02,8.52"></path>
        <path class="d" d="M87.98,62.4c-8.59-13.9-28.09-27.93-28.71-28.37-.61,.44-20.11,14.47-28.7,28.37-11.6,18.76-10.09,29.58-7.09,35.75,7.47,6.87,16.93,11.61,27.41,13.28l4.52-64.07,3.77-3.78,.05-.05h0l.05,.05,3.77,3.78,4.55,64.02-.06,.03c10.57-1.67,20.09-6.45,27.6-13.4,2.95-6.2,4.35-16.99-7.16-35.61"></path>
        <polygon class="f" points="63.04 47.36 59.28 43.58 59.32 116.09 67.53 111.41 67.59 111.38 63.04 47.36"></polygon>
        <path class="f" d="M59.25,29.16l-1.64,1.21-6.89,5.08,1.8-6.55,.31-1.14,.61-2.2-2-1.08-6.48-3.49c3.27-.72,6.61-1.19,9.99-1.41l1.65-.1,.07-.14,.66-1.35,.1-.21h0l1.85-3.76,1.91,3.88h0l.04,.08,.66,1.35,.07,.14,1.65,.1c3.37,.21,6.72,.69,9.99,1.41l-6.48,3.49-2.01,1.08,.61,2.2,.31,1.14,1.8,6.55-6.89-5.08-1.64-1.21v-.03l-.03,.02-.02-.02v.03Z"></path>
        <path class="f" d="M59.29,29.13v.03l1.64,1.21,6.89,5.08-1.8-6.55-.31-1.14-.61-2.2,2-1.08,6.48-3.49c-3.27-.72-6.61-1.19-9.99-1.41l-1.65-.1-.07-.14-.67-1.35-.04-.08-1.91-3.88-1.84,3.75h0l-.1,.21-.66,1.35-.07,.14-1.65,.1c-3.38,.21-6.72,.69-9.99,1.41l6.48,3.49,2,1.08-.61,2.2-.31,1.14-1.8,6.55,6.89-5.08,1.64-1.21v-.03l.02,.02,.03-.02Z"></path>
      </g>
    </g>
  </g>
</svg>
